<?xml version="1.0" encoding="UTF-8" standalone="no"?>
<!-- Created with Inkscape (http://www.inkscape.org/) -->
<svg
   xmlns:dc="http://purl.org/dc/elements/1.1/"
   xmlns:cc="http://web.resource.org/cc/"
   xmlns:rdf="http://www.w3.org/1999/02/22-rdf-syntax-ns#"
   xmlns:svg="http://www.w3.org/2000/svg"
   xmlns="http://www.w3.org/2000/svg"
   xmlns:sodipodi="http://sodipodi.sourceforge.net/DTD/sodipodi-0.dtd"
   xmlns:inkscape="http://www.inkscape.org/namespaces/inkscape"
   width="941.62952"
   height="472.35031"
   id="svg2"
   sodipodi:version="0.32"
   inkscape:version="0.45"
   sodipodi:docbase="/home/monkey/Desktop"
   sodipodi:docname="Flag_of_Bougainville.svg"
   inkscape:output_extension="org.inkscape.output.svg.inkscape"
   version="1.0">
  <defs
     id="defs4" />
  <sodipodi:namedview
     id="base"
     pagecolor="#ffffff"
     bordercolor="#666666"
     borderopacity="1.0"
     gridtolerance="10000"
     guidetolerance="10"
     objecttolerance="10"
     inkscape:pageopacity="0.0"
     inkscape:pageshadow="2"
     inkscape:zoom="0.70710678"
     inkscape:cx="434.13367"
     inkscape:cy="259.7367"
     inkscape:document-units="px"
     inkscape:current-layer="layer1"
     showgrid="false"
     inkscape:window-width="1024"
     inkscape:window-height="743"
     inkscape:window-x="1024"
     inkscape:window-y="0"
     width="1049.36px"
     height="744.09448px"
     inkscape:object-bbox="false" />
  <metadata
     id="metadata7">
    <rdf:RDF>
      <cc:Work
         rdf:about="">
        <dc:format>image/svg+xml</dc:format>
        <dc:type
           rdf:resource="http://purl.org/dc/dcmitype/StillImage" />
      </cc:Work>
    </rdf:RDF>
  </metadata>
  <g
     inkscape:label="Layer 1"
     inkscape:groupmode="layer"
     id="layer1"
     transform="translate(-38.801083,-222.66368)">
    <rect
       style="fill:#000080;fill-rule:evenodd;stroke:#000000;stroke-width:1.39315665px;stroke-linecap:butt;stroke-linejoin:miter;stroke-opacity:1"
       id="rect2162"
       width="940.23639"
       height="470.95715"
       x="39.497662"
       y="223.36026" />
    <path
       sodipodi:type="arc"
       style="fill:#ffffff"
       id="path2237"
       sodipodi:cx="274.35742"
       sodipodi:cy="207.36958"
       sodipodi:rx="156.97771"
       sodipodi:ry="157.68481"
       d="M 431.33513 207.36958 A 156.97771 157.68481 0 1 1  117.37971,207.36958 A 156.97771 157.68481 0 1 1  431.33513 207.36958 z"
       transform="matrix(1.1621622,0,0,1.1659193,183.19799,218.03051)" />
    <path
       sodipodi:type="arc"
       style="fill:#18de9c;fill-opacity:1"
       id="path2241"
       sodipodi:cx="88.388344"
       sodipodi:cy="241.3107"
       sodipodi:rx="105.35891"
       sodipodi:ry="105.35891"
       d="M 193.74725 241.3107 A 105.35891 105.35891 0 1 1  -16.970566,241.3107 A 105.35891 105.35891 0 1 1  193.74725 241.3107 z"
       transform="matrix(1.624161,0,0,1.6241611,358.4889,69.293461)" />
    <path
       sodipodi:type="star"
       style="fill:#ffffff;fill-opacity:1"
       id="path2243"
       sodipodi:sides="24"
       sodipodi:cx="130.10765"
       sodipodi:cy="342.42697"
       sodipodi:r1="213.52753"
       sodipodi:r2="172.95731"
       sodipodi:arg1="0.85570463"
       sodipodi:arg2="0.98660432"
       inkscape:flatsided="false"
       inkscape:rounded="2.810252e-16"
       inkscape:randomized="0"
       d="M 270.1148,503.64733 L 225.49803,486.70069 L 223.61727,534.39039 L 184.90689,506.47353 L 170.74722,552.05147 L 140.58128,515.06686 L 115.10765,555.42698 L 95.541908,511.89508 L 60.490303,544.2869 L 52.858134,497.17432 L 10.617263,519.39039 L 15.438786,471.90779 L -31.112704,482.43412 L -14.166067,437.81735 L -61.85577,435.93659 L -33.938906,397.22621 L -79.516847,383.06654 L -42.532242,352.9006 L -82.89236,327.42697 L -39.360456,307.86123 L -71.752275,272.80962 L -24.639698,265.17745 L -46.855769,222.93658 L 0.62683659,227.75811 L -9.8994988,181.20662 L 34.717274,198.15325 L 36.598027,150.46355 L 75.308409,178.38041 L 89.46808,132.80247 L 119.63402,169.78708 L 145.10765,129.42696 L 164.67339,172.95886 L 199.725,140.56705 L 207.35717,187.67962 L 249.59804,165.46355 L 244.77652,212.94616 L 291.32801,202.41982 L 274.38137,247.03659 L 322.07107,248.91735 L 294.15421,287.62773 L 339.73215,301.7874 L 302.74754,331.95334 L 343.10766,357.42697 L 299.57576,376.99271 L 331.96758,412.04432 L 284.855,419.67649 L 307.07107,461.91736 L 259.58846,457.09584 L 270.1148,503.64733 z "
       transform="matrix(0.811598,-6.5648601e-2,5.8150814e-2,0.8048018,375.12408,194.17644)" />
    <path
       sodipodi:type="arc"
       style="fill:#000000"
       id="path2164"
       sodipodi:cx="382.5"
       sodipodi:cy="207.86218"
       sodipodi:rx="76.5"
       sodipodi:ry="79.5"
       d="M 459 207.86218 A 76.5 79.5 0 1 1  306,207.86218 A 76.5 79.5 0 1 1  459 207.86218 z"
       transform="matrix(1.7359344,0,0,1.6736648,-160.82126,112.07109)" />
    <g
       id="g11995"
       style="fill:#ffffff;fill-opacity:1"
       transform="translate(263.04372,-560.02857)">
      <path
         id="path9084"
         d="M 189.50462,936.39667 L 164.04877,1049.5338 C 164.04877,1049.5338 199.40411,1074.9896 207.88939,1100.4454 C 216.37467,1125.9013 271.529,1106.1023 271.529,1106.1023 L 248.90159,925.08296 L 240.41631,920.84032 L 189.50462,936.39667 z "
         style="fill:#ffffff;fill-opacity:1;fill-rule:evenodd;stroke:none;stroke-width:1px;stroke-linecap:butt;stroke-linejoin:miter;stroke-opacity:1" />
      <path
         id="path10055"
         d="M 292.74221,936.26435 L 318.19806,1049.4014 C 318.19806,1049.4014 282.84272,1074.8572 274.35744,1100.313 C 265.87216,1125.7689 210.71783,1105.9699 210.71783,1105.9699 L 233.34524,924.95064 L 241.83052,920.708 L 292.74221,936.26435 z "
         style="fill:#ffffff;fill-opacity:1;fill-rule:evenodd;stroke:none;stroke-width:1px;stroke-linecap:butt;stroke-linejoin:miter;stroke-opacity:1" />
    </g>
    <g
       id="g12968"
       style="fill:#ff0000;fill-opacity:1"
       transform="matrix(0.8256881,0,0,1,305.0744,-560.09473)">
      <path
         id="path12970"
         d="M 189.50462,936.39667 L 164.04877,1049.5338 C 164.04877,1049.5338 199.40411,1074.9896 207.88939,1100.4454 C 216.37467,1125.9013 271.529,1106.1023 271.529,1106.1023 L 248.90159,925.08296 L 240.41631,920.84032 L 189.50462,936.39667 z "
         style="fill:#ff0000;fill-opacity:1;fill-rule:evenodd;stroke:none;stroke-width:1px;stroke-linecap:butt;stroke-linejoin:miter;stroke-opacity:1" />
      <path
         id="path12972"
         d="M 292.74221,936.26435 L 318.19806,1049.4014 C 318.19806,1049.4014 282.84272,1074.8572 274.35744,1100.313 C 265.87216,1125.7689 210.71783,1105.9699 210.71783,1105.9699 L 233.34524,924.95064 L 241.83052,920.708 L 292.74221,936.26435 z "
         style="fill:#ff0000;fill-opacity:1;fill-rule:evenodd;stroke:none;stroke-width:1px;stroke-linecap:butt;stroke-linejoin:miter;stroke-opacity:1" />
    </g>
    <g
       id="g12974"
       style="fill:#ffffff;fill-opacity:1"
       transform="matrix(0.5779817,0,0,1,364.0951,-560.09473)">
      <path
         id="path12976"
         d="M 189.50462,936.39667 L 164.04877,1049.5338 C 164.04877,1049.5338 199.40411,1074.9896 207.88939,1100.4454 C 216.37467,1125.9013 271.529,1106.1023 271.529,1106.1023 L 248.90159,925.08296 L 240.41631,920.84032 L 189.50462,936.39667 z "
         style="fill:#ffffff;fill-opacity:1;fill-rule:evenodd;stroke:none;stroke-width:1px;stroke-linecap:butt;stroke-linejoin:miter;stroke-opacity:1" />
      <path
         id="path12978"
         d="M 292.74221,936.26435 L 318.19806,1049.4014 C 318.19806,1049.4014 282.84272,1074.8572 274.35744,1100.313 C 265.87216,1125.7689 210.71783,1105.9699 210.71783,1105.9699 L 233.34524,924.95064 L 241.83052,920.708 L 292.74221,936.26435 z "
         style="fill:#ffffff;fill-opacity:1;fill-rule:evenodd;stroke:none;stroke-width:1px;stroke-linecap:butt;stroke-linejoin:miter;stroke-opacity:1" />
    </g>
    <g
       id="g12980"
       style="fill:#ff0000;fill-opacity:1"
       transform="matrix(0.293578,0,0,1,431.96438,-560.09473)">
      <path
         id="path12982"
         d="M 189.50462,936.39667 L 164.04877,1049.5338 C 164.04877,1049.5338 199.40411,1074.9896 207.88939,1100.4454 C 216.37467,1125.9013 271.529,1106.1023 271.529,1106.1023 L 248.90159,925.08296 L 240.41631,920.84032 L 189.50462,936.39667 z "
         style="fill:#ff0000;fill-opacity:1;fill-rule:evenodd;stroke:none;stroke-width:1px;stroke-linecap:butt;stroke-linejoin:miter;stroke-opacity:1" />
      <path
         id="path12984"
         d="M 292.74221,936.26435 L 318.19806,1049.4014 C 318.19806,1049.4014 282.84272,1074.8572 274.35744,1100.313 C 265.87216,1125.7689 210.71783,1105.9699 210.71783,1105.9699 L 233.34524,924.95064 L 241.83052,920.708 L 292.74221,936.26435 z "
         style="fill:#ff0000;fill-opacity:1;fill-rule:evenodd;stroke:none;stroke-width:1px;stroke-linecap:butt;stroke-linejoin:miter;stroke-opacity:1" />
    </g>
  </g>
</svg>
