<?xml version="1.0" encoding="UTF-8" standalone="no"?>
<!-- Created with Inkscape (http://www.inkscape.org/) -->
<svg
   xmlns:dc="http://purl.org/dc/elements/1.1/"
   xmlns:cc="http://creativecommons.org/ns#"
   xmlns:rdf="http://www.w3.org/1999/02/22-rdf-syntax-ns#"
   xmlns:svg="http://www.w3.org/2000/svg"
   xmlns="http://www.w3.org/2000/svg"
   xmlns:sodipodi="http://sodipodi.sourceforge.net/DTD/sodipodi-0.dtd"
   xmlns:inkscape="http://www.inkscape.org/namespaces/inkscape"
   width="300"
   height="200"
   id="svg2"
   sodipodi:version="0.32"
   inkscape:version="0.46"
   sodipodi:docname="Flag of Campione d'Italia.svg"
   inkscape:output_extension="org.inkscape.output.svg.inkscape"
   version="1.0">
  <defs
     id="defs4">
    <inkscape:perspective
       sodipodi:type="inkscape:persp3d"
       inkscape:vp_x="0 : 526.18109 : 1"
       inkscape:vp_y="0 : 1000 : 0"
       inkscape:vp_z="744.09448 : 526.18109 : 1"
       inkscape:persp3d-origin="372.04724 : 350.78739 : 1"
       id="perspective10" />
    <inkscape:perspective
       id="perspective2390"
       inkscape:persp3d-origin="372.04724 : 350.78739 : 1"
       inkscape:vp_z="744.09448 : 526.18109 : 1"
       inkscape:vp_y="0 : 1000 : 0"
       inkscape:vp_x="0 : 526.18109 : 1"
       sodipodi:type="inkscape:persp3d" />
    <inkscape:perspective
       id="perspective3426"
       inkscape:persp3d-origin="372.04724 : 350.78739 : 1"
       inkscape:vp_z="744.09448 : 526.18109 : 1"
       inkscape:vp_y="0 : 1000 : 0"
       inkscape:vp_x="0 : 526.18109 : 1"
       sodipodi:type="inkscape:persp3d" />
  </defs>
  <sodipodi:namedview
     id="base"
     pagecolor="#ffffff"
     bordercolor="#666666"
     borderopacity="1.0"
     gridtolerance="10000"
     guidetolerance="10"
     objecttolerance="10"
     inkscape:pageopacity="0.0"
     inkscape:pageshadow="2"
     inkscape:zoom="2.8284271"
     inkscape:cx="220.335"
     inkscape:cy="94.275866"
     inkscape:document-units="px"
     inkscape:current-layer="g3611"
     showgrid="false"
     showguides="true"
     inkscape:guide-bbox="true"
     inkscape:window-width="1399"
     inkscape:window-height="874"
     inkscape:window-x="37"
     inkscape:window-y="-4">
    <inkscape:grid
       type="xygrid"
       id="grid2466"
       visible="true"
       enabled="true"
       spacingx="5px"
       spacingy="5px" />
  </sodipodi:namedview>
  <metadata
     id="metadata7">
    <rdf:RDF>
      <cc:Work
         rdf:about="">
        <dc:format>image/svg+xml</dc:format>
        <dc:type
           rdf:resource="http://purl.org/dc/dcmitype/StillImage" />
      </cc:Work>
    </rdf:RDF>
  </metadata>
  <g
     inkscape:label="Layer 1"
     inkscape:groupmode="layer"
     id="layer1">
    <rect
       style="fill:#4a31b5;fill-opacity:1;stroke:none;stroke-width:0.50000000000000000;stroke-linecap:round;stroke-miterlimit:10;stroke-dasharray:none;stroke-opacity:1"
       id="rect3609"
       width="300"
       height="200"
       x="0"
       y="-2.8421709e-14"
       ry="0" />
    <g
       id="g3611"
       transform="translate(0,1.4250822)">
      <g
         transform="matrix(0.9168486,0,0,0.9168486,-186.48344,25.654934)"
         id="g3528">
        <path
           id="path3434"
           style="fill:#fff500;fill-opacity:1;fill-rule:evenodd;stroke:#da251d;stroke-width:1.09069264px;stroke-linecap:butt;stroke-linejoin:miter;stroke-opacity:1"
           d="M 367,170.25 C 367,177.75 389,173.75 392.375,171.125 C 397.94609,166.79193 400,154.25 394.25,152 C 394.25,152 400,152.5 401.25,145.5 C 401.5,148.5 405.25,153.75 411.5,153.25 C 408.75,149.5 414.5,147.5 418,143.5 C 421.5,139.5 428.25,138.75 428.25,128.75 C 428.25,118.75 424.25,116.5 427,108 C 426.75,111 432.75,114.5 433.5,110.5 C 434.25,106.5 443.75,96.5 449,91.25 C 454.25,86 450.5,77.5 445.5,77.5 C 440.5,77.5 434.26992,79.678078 438,88.5 C 438,88.5 433.5,86.75 432.75,79.5 C 432,72.25 449,48.25 449.25,37.75 C 449.5,27.25 442,23.5 436.75,18.75 C 431.5,14 426.25,9.9999998 421.75,15.5 C 419.5,11.5 415.73639,9.7381288 409.875,4.6249998 C 404,-0.50000021 398.75,-15.75 391.5,-15.5 C 384.25,-15.25 378,-11.25 367,-11.25 C 356,-11.25 349.75,-15.25 342.5,-15.5 C 335.25,-15.75 330,-0.50000021 324.125,4.6249998 C 318.26361,9.7381288 314.5,11.5 312.25,15.5 C 307.75,9.9999998 302.5,14 297.25,18.75 C 292,23.5 284.5,27.25 284.75,37.75 C 285,48.25 302,72.25 301.25,79.5 C 300.5,86.75 296,88.5 296,88.5 C 299.73008,79.678078 293.5,77.5 288.5,77.5 C 283.5,77.5 279.75,86 285,91.25 C 290.25,96.5 299.75,106.5 300.5,110.5 C 301.25,114.5 307.25,111 307,108 C 309.75,116.5 305.75,118.75 305.75,128.75 C 305.75,138.75 312.5,139.5 316,143.5 C 319.5,147.5 325.25,149.5 322.5,153.25 C 328.75,153.75 332.5,148.5 332.75,145.5 C 334,152.5 339.75,152 339.75,152 C 334,154.25 336.05391,166.79193 341.625,171.125 C 345,173.75 367,177.75 367,170.25 z"
           sodipodi:nodetypes="cscccsscssscssscsscsscssscssscsscccsc" />
        <path
           style="fill:none;fill-rule:evenodd;stroke:#da251d;stroke-width:0.54534632;stroke-linecap:butt;stroke-linejoin:miter;stroke-opacity:1"
           d="M 348.65407,8.5520699 C 347.83933,8.6092171 346.95664,8.6346627 346,8.6249997 C 333.625,8.4999997 334.5,-5.3750003 342.125,-5.7500003 C 349.75,-6.1250003 349.25,2.4999997 344.625,2.4999997 C 340,2.4999997 340.625,-1.0000003 340.75,-2.5000003 C 338.875,1.2499997 339.5,6.1249997 345.625,5.7499997 C 351.75,5.3749997 352.375,-0.8750003 352.375,-2.7500003 C 352.375,-4.6250003 351,-12.25 343.25,-11.625 C 335.5,-11 334.875,-4.2500003 330.5,1.3749997 C 326.42108,6.6193304 315.875,14.5 314.75,17 C 314.125,20.125 313.75,23.25 311.5,25.875"
           id="path3513" />
        <path
           style="fill:none;fill-rule:evenodd;stroke:#da251d;stroke-width:0.54534632;stroke-linecap:butt;stroke-linejoin:miter;stroke-opacity:1"
           d="M 347.25,-14.75 C 355.25,-12.5 356.5625,-6.3125003 355.75,-1.8750003 C 354.60626,4.3715969 351.75,7.4999997 348,8.6249997"
           id="path3440"
           sodipodi:nodetypes="csc" />
        <path
           style="fill:none;fill-rule:evenodd;stroke:#da251d;stroke-width:0.54534632;stroke-linecap:butt;stroke-linejoin:miter;stroke-opacity:1"
           d="M 302.25,14.6875 C 306.9375,14.3125 317.90625,22.375 307.40625,32.4375"
           id="path3442"
           sodipodi:nodetypes="cc" />
        <path
           style="fill:none;fill-rule:evenodd;stroke:#da251d;stroke-width:0.54534632;stroke-linecap:butt;stroke-linejoin:miter;stroke-opacity:1"
           d="M 295.125,20.75 C 304,20.4375 308.57305,23.970052 307.4375,32 C 306.5625,38.1875 299.50997,38.680995 296.5,37.3125 C 293.02937,35.734564 291.25,26.5625 297.5625,26.125 C 303.875,25.6875 303.6875,34.625 298.875,34.625 C 302.6875,35.25 305.3125,34.0625 305.3125,29.4375 C 305.3125,24.8125 301.45248,23.231608 297.4375,23.375 C 292.1875,23.5625 288,31.125 287.375,36.5625 C 286.86783,40.974908 291.5,50.125 296.25,59.5 C 300.79535,68.471087 305.39905,76.78033 304.07322,81.416815 C 302.80119,85.865206 300.50996,90.167893 295.38496,91.542893 C 290.25996,92.917893 287.75628,91.320621 286,86.375 C 283.64483,79.742925 289.06311,80.521909 290.8125,80.75 C 294.77975,81.267264 295.5625,87.6875 288.6875,85.9375"
           id="path3444"
           sodipodi:nodetypes="cssscssssssssc" />
        <path
           style="fill:none;fill-rule:evenodd;stroke:#da251d;stroke-width:0.54534632;stroke-linecap:round;stroke-linejoin:miter;stroke-opacity:1"
           d="M 288.5,80.5 C 286.5625,81.25 288,86.75 290.3125,88 C 292.625,89.25 293.625,89.5625 295.9375,88.625"
           id="path3447"
           sodipodi:nodetypes="csc" />
        <path
           style="fill:none;fill-rule:evenodd;stroke:#da251d;stroke-width:0.54534632;stroke-linecap:round;stroke-linejoin:miter;stroke-opacity:1"
           d="M 288.20083,90.407932 C 291.2592,93.032049 295.62198,99.347657 300.05158,103.77255 C 301.9368,105.65577 302.78246,110.30945 303.86612,108.61244 C 304.64459,106.56857 306.45706,105.26386 307.13876,102.33784 C 309.90131,108.56119 311.3863,114.88691 309.75,121.625 C 308.0621,128.57556 308.875,136.125 313.25,137.375 C 317.625,138.625 321.75,135.375 318.625,131.375 C 317,134.875 314.375,135.5 313,133 C 311.625,130.5 312.25,126.125 316.875,126.5 C 321.5,126.875 323.375,133.125 322.25,136.375 C 321.125,139.625 313.75,141.125 313.75,141.125"
           id="path3449"
           sodipodi:nodetypes="csccsscsssc" />
        <path
           style="fill:none;fill-rule:evenodd;stroke:#da251d;stroke-width:0.54534632000000005;stroke-linecap:round;stroke-linejoin:miter;stroke-opacity:1"
           d="M 322.49101,135 C 323.11601,140.625 327.125,148.375 331.25,148.625"
           id="path3451"
           sodipodi:nodetypes="cc" />
        <path
           style="fill:none;fill-rule:evenodd;stroke:#da251d;stroke-width:0.54534632;stroke-linecap:butt;stroke-linejoin:miter;stroke-opacity:1"
           d="M 337.375,154.375 C 337,161.75 340.625,169.5 348.625,169.75 C 353.74894,169.91266 358.125,167.75 358.25,163.125 C 358.34429,159.73054 355.875,157.125 352.875,157.25 C 349.875,157.375 349.25,163.625 352.875,163.75 C 345.875,164.125 345.37711,158.42951 347.125,156 C 351.42592,150.02186 360.05916,153.81831 362.84191,159.58335 C 364.52355,164.05614 365.71916,173.00339 354.375,174.25"
           id="path3453"
           sodipodi:nodetypes="cssscscc" />
        <path
           id="path3436"
           style="fill:none;fill-rule:evenodd;stroke:#da251d;stroke-width:0.54534632;stroke-linecap:round;stroke-linejoin:miter;stroke-miterlimit:10;stroke-dasharray:none;stroke-opacity:1"
           d="M 379.875,7.4999997 C 368.625,7.2499997 369.625,-1.6250003 372.25,-4.3750003 C 370.25,-3.1250003 368.75,-2.5000003 367,-3.6250003 C 365.25,-2.5000003 363.75,-3.1250003 361.75,-4.3750003 C 364.375,-1.6250003 365.375,7.2499997 354.125,7.4999997"
           sodipodi:nodetypes="ccccc" />
        <path
           style="fill:none;fill-rule:evenodd;stroke:#da251d;stroke-width:0.54534632;stroke-linecap:butt;stroke-linejoin:miter;stroke-opacity:1"
           d="M 385.49814,8.562325 C 386.27032,8.6122351 387.10263,8.6340641 388,8.6249997 C 400.375,8.4999997 399.5,-5.3750003 391.875,-5.7500003 C 384.25,-6.1250003 384.75,2.4999997 389.375,2.4999997 C 394,2.4999997 393.375,-1.0000003 393.25,-2.5000003 C 395.125,1.2499997 394.5,6.1249997 388.375,5.7499997 C 382.25,5.3749997 381.625,-0.8750003 381.625,-2.7500003 C 381.625,-4.6250003 383,-12.25 390.75,-11.625 C 398.5,-11 399.125,-4.2500003 403.5,1.3749997 C 407.57892,6.6193304 418.125,14.5 419.25,17 C 419.875,20.125 420.25,23.25 422.5,25.875"
           id="path3521" />
        <path
           id="path3438"
           style="fill:#da251d;fill-opacity:1;fill-rule:evenodd;stroke:none;stroke-width:0.5;stroke-linecap:butt;stroke-linejoin:miter;stroke-opacity:1"
           d="M 359,-3.75 C 358.7073,-1.7596415 358.04516,2.8593016 356.84375,4.59375 C 355.64234,6.3281984 353.39894,7.8722543 348.625,8.2071068 L 348.56699,8.8214887 C 353.51771,8.4742368 356.26003,7.1719463 357.65625,5.15625 C 359.05247,3.1405537 358.71602,-1.8189012 359,-3.75 z M 375,-3.75 C 375.28546,-1.8088793 374.92721,3.1656117 376.34375,5.1875 C 377.76029,7.2093883 380.44284,8.4725383 385.46875,8.7973876 L 385.53125,8.2312079 C 380.68073,7.9176953 378.40601,6.3329813 377.1875,4.59375 C 375.96899,2.8545187 375.29422,-1.74931 375,-3.75 z"
           sodipodi:nodetypes="csccsccsccsc" />
        <path
           sodipodi:nodetypes="csc"
           id="path3475"
           d="M 386.75,-14.75 C 378.75,-12.5 377.4375,-6.3125003 378.25,-1.8750003 C 379.39374,4.3715969 381.84028,7.4035952 385.59028,8.5285952"
           style="fill:none;fill-rule:evenodd;stroke:#da251d;stroke-width:0.54534632000000005;stroke-linecap:round;stroke-linejoin:miter;stroke-opacity:1" />
        <path
           sodipodi:nodetypes="cc"
           id="path3477"
           d="M 431.75,14.6875 C 427.0625,14.3125 416.09375,22.375 426.59375,32.4375"
           style="fill:none;fill-rule:evenodd;stroke:#da251d;stroke-width:0.54534632;stroke-linecap:butt;stroke-linejoin:miter;stroke-opacity:1" />
        <path
           sodipodi:nodetypes="cssscssssssssc"
           id="path3479"
           d="M 438.875,20.75 C 430,20.4375 425.42695,23.970052 426.5625,32 C 427.4375,38.1875 434.49003,38.680995 437.5,37.3125 C 440.97063,35.734564 442.75,26.5625 436.4375,26.125 C 430.125,25.6875 430.3125,34.625 435.125,34.625 C 431.3125,35.25 428.6875,34.0625 428.6875,29.4375 C 428.6875,24.8125 432.54752,23.231608 436.5625,23.375 C 441.8125,23.5625 446,31.125 446.625,36.5625 C 447.13217,40.974908 442.5,50.125 437.75,59.5 C 433.20465,68.471087 428.60095,76.78033 429.92678,81.416815 C 431.19881,85.865206 433.49004,90.167893 438.61504,91.542893 C 443.74004,92.917893 446.24372,91.320621 448,86.375 C 450.35517,79.742925 444.93689,80.521909 443.1875,80.75 C 439.22025,81.267264 438.4375,87.6875 445.3125,85.9375"
           style="fill:none;fill-rule:evenodd;stroke:#da251d;stroke-width:0.54534632;stroke-linecap:butt;stroke-linejoin:miter;stroke-opacity:1" />
        <path
           sodipodi:nodetypes="csc"
           id="path3481"
           d="M 445.5,80.5 C 447.4375,81.25 446,86.75 443.6875,88 C 441.375,89.25 440.375,89.5625 438.0625,88.625"
           style="fill:none;fill-rule:evenodd;stroke:#da251d;stroke-width:0.54534632;stroke-linecap:round;stroke-linejoin:miter;stroke-opacity:1" />
        <path
           sodipodi:nodetypes="csccsscsssc"
           id="path3483"
           d="M 445.79917,90.407932 C 442.7408,93.032049 438.37802,99.347657 433.94842,103.77255 C 432.0632,105.65577 431.21754,110.30945 430.13388,108.61244 C 429.35541,106.56857 427.54294,105.26386 426.86124,102.33784 C 424.09869,108.56119 422.6137,114.88691 424.25,121.625 C 425.9379,128.57556 425.125,136.125 420.75,137.375 C 416.375,138.625 412.25,135.375 415.375,131.375 C 417,134.875 419.625,135.5 421,133 C 422.375,130.5 421.75,126.125 417.125,126.5 C 412.5,126.875 410.625,133.125 411.75,136.375 C 412.875,139.625 420.25,141.125 420.25,141.125"
           style="fill:none;fill-rule:evenodd;stroke:#da251d;stroke-width:0.54534632;stroke-linecap:round;stroke-linejoin:miter;stroke-opacity:1" />
        <path
           id="path3485"
           d="M 411.36438,135 C 410.73938,140.625 406.875,148.375 402.75,148.625"
           style="fill:none;fill-rule:evenodd;stroke:#da251d;stroke-width:0.54534632000000005;stroke-linecap:round;stroke-linejoin:miter;stroke-opacity:1"
           sodipodi:nodetypes="cc" />
        <path
           sodipodi:nodetypes="cssscscc"
           id="path3487"
           d="M 396.625,154.375 C 397,161.75 393.375,169.5 385.375,169.75 C 380.25106,169.91266 375.875,167.75 375.75,163.125 C 375.65571,159.73054 378.125,157.125 381.125,157.25 C 384.125,157.375 384.75,163.625 381.125,163.75 C 388.125,164.125 388.62289,158.42951 386.875,156 C 382.57408,150.02186 373.94084,153.81831 371.15809,159.58335 C 369.47645,164.05614 368.28084,173.00339 379.625,174.25"
           style="fill:none;fill-rule:evenodd;stroke:#da251d;stroke-width:0.54534632;stroke-linecap:butt;stroke-linejoin:miter;stroke-opacity:1" />
      </g>
      <g
         transform="matrix(0.6261274,0,0,0.6261274,87.074196,47.097324)"
         id="g3549">
        <path
           id="path3395"
           d="M 175.5,60 C 173.12804,91.001102 160.08721,134.89029 99.875,177 L 99.875,60 L 175.5,60 z"
           style="fill:#da251d;fill-opacity:1;stroke:none;stroke-width:1;stroke-linecap:square;stroke-opacity:1" />
        <path
           style="fill:#fff500;fill-opacity:1;stroke:none;stroke-width:1;stroke-linecap:square;stroke-opacity:1"
           d="M 24.875,60 C 27.246963,91.001102 40.287791,134.89029 100.5,177 L 100.5,60 L 24.875,60 z"
           id="rect3390" />
        <path
           style="fill:#ffffff;fill-opacity:1;fill-rule:evenodd;stroke:#000000;stroke-width:1.59711897px;stroke-linecap:butt;stroke-linejoin:miter;stroke-opacity:1"
           d="M 78.125797,92.522926 C 73.958917,93.280536 70.748047,93.722476 69.985937,90.313213 C 69.223827,86.903948 70.218197,84.615321 70.912677,83.668303 C 65.925047,83.226361 64.678137,83.494683 63.352317,86.272603 C 62.026487,89.050522 61.705147,94.570366 67.519197,97.826226 C 70.675917,99.593986 75.347877,100.28847 78.630877,98.646976 L 78.786822,98.479669 L 80.42832,96.711902 L 83.20624,91.661139 L 78.125797,92.522926 z"
           id="path2514"
           sodipodi:nodetypes="cscssc" />
        <path
           style="fill:#ffffff;fill-opacity:1;fill-rule:evenodd;stroke:none;stroke-width:1px;stroke-linecap:butt;stroke-linejoin:miter;stroke-opacity:1"
           d="M 28.5,5 C 28.5,5 24.31731,10.30968 23.5,40 C 23.341078,45.773118 23.302457,52.516975 23.875,60 L 175.125,60 C 175.69754,52.516975 175.65892,45.773118 175.5,40 C 174.68269,10.309678 170.5,5 170.5,5 L 99.5,5 L 28.5,5 z"
           id="path3379" />
        <path
           style="fill:#ffffff;fill-opacity:1;fill-rule:evenodd;stroke:#000000;stroke-width:1.59711897px;stroke-linecap:butt;stroke-linejoin:miter;stroke-opacity:1"
           d="M 129.07537,138.48487 C 128.44402,135.20187 132.48463,124.84781 132.48463,121.31227 C 132.48463,117.77674 132.29523,116.19837 132.23209,114.43061 C 132.16896,112.66284 131.53761,106.41252 130.21179,106.47566 C 128.19148,108.49597 127.93895,110.2006 127.30692,115.85737 C 125.98616,114.51393 123.70516,113.12258 120.99415,113.04165 C 116.76413,112.91538 117.83742,118.40808 117.58488,121.37541 C 117.33235,124.34273 116.32219,123.20631 116.25906,127.62573 C 116.19592,132.04514 118.02683,133.0553 120.04713,135.45441 C 122.06744,137.85352 121.24669,138.67427 120.99415,142.96742 L 122.66451,145.75504 L 128.20022,143.79076 L 129.18236,138.79076"
           id="path3347" />
        <path
           style="fill:#796b5d;fill-opacity:1;stroke:#000000;stroke-width:1.25438702;stroke-opacity:1"
           d="M 154.95022,18.308036 C 153.63638,18.308036 152.5752,19.369198 152.57522,20.683036 C 152.57522,20.847266 152.606,20.996891 152.63772,21.151786 C 150.73777,23.285536 146.9502,28.266078 146.95022,33.995536 C 146.88709,34.121805 145.86806,39.485702 147.82522,34.245536 C 149.66645,29.315778 153.93403,23.668197 154.45022,22.995536 C 154.61457,23.031467 154.77514,23.058036 154.95022,23.058036 C 156.26406,23.058036 157.32523,21.996873 157.32522,20.683036 C 157.32522,19.369199 156.26405,18.308036 154.95022,18.308036 z"
           id="path2416" />
        <path
           style="fill:#796b5d;fill-opacity:1;stroke:#000000;stroke-width:1.25438702;stroke-opacity:1"
           d="M 164.25358,26.510696 C 163.1448,25.805861 161.67997,26.132107 160.97515,27.240892 C 160.88705,27.379489 160.83275,27.522273 160.77643,27.670009 C 158.02833,28.451458 152.16002,30.622723 149.08636,35.457937 C 148.96534,35.530631 145.2278,39.510653 149.69067,36.138328 C 153.88918,32.96577 160.52043,30.489088 161.31692,30.198336 C 161.43634,30.316828 161.55759,30.425391 161.70535,30.519316 C 162.81412,31.22415 164.27895,30.897899 164.98377,29.78912 C 165.68861,28.680347 165.36234,27.215525 164.25358,26.510696 z"
           id="path2424" />
        <path
           style="fill:#796b5d;fill-opacity:1;fill-rule:evenodd;stroke:#000000;stroke-width:1.59711897px;stroke-linecap:butt;stroke-linejoin:miter;stroke-opacity:1"
           d="M 82.664506,40.755038 C 79.271647,41.826467 66.593077,45.755038 61.414507,45.755038 C 56.235937,45.755038 50.521647,50.219324 50.878787,49.862181 C 59.807357,57.005038 63.914507,53.255038 66.235937,53.255038 C 68.557357,53.255038 69.093077,55.219324 72.307357,55.040752 C 75.521647,54.862181 79.450217,52.540752 83.200216,52.362181 C 86.950216,52.183609 85.878786,53.969324 88.557356,53.969324 C 91.235936,53.969324 91.771646,52.540752 94.271646,52.540752 C 96.771646,52.540752 95.164506,53.790752 97.664506,53.433609 C 100.16451,53.076467 99.807356,51.469324 102.48594,51.469324 C 105.16451,51.469324 104.33955,53.150536 106.28058,53.121109 C 108.51424,53.086449 108.3788,51.826466 109.98594,51.826466 C 111.59308,51.826466 113.02165,53.433609 116.05736,53.255038 C 119.09308,53.076466 130.16451,50.755038 137.30736,47.362181 C 144.45022,43.969324 147.30736,42.719324 149.27165,42.540752 C 151.23594,42.362181 153.02165,38.255038 153.02165,36.290752 C 153.02165,34.326466 147.66451,31.469324 145.34308,31.469324 C 143.02165,31.469324 135.52165,34.683609 129.45022,34.505038 C 128.79557,34.485784 128.07448,34.508051 127.30173,34.566917"
           id="path2396"
           sodipodi:nodetypes="cscssssssssssssssss" />
        <path
           style="fill:none;fill-rule:evenodd;stroke:#000000;stroke-width:1.59711897px;stroke-linecap:butt;stroke-linejoin:miter;stroke-opacity:1"
           d="M 51.593077,49.862181 C 67.307357,51.647895 96.414506,50.933609 102.30736,49.505038 C 108.20022,48.076467 110.70022,50.040752 114.98594,49.683609 C 119.27165,49.326467 136.59308,42.027359 149.09308,42.563073"
           id="path2398"
           sodipodi:nodetypes="cssc" />
        <path
           style="fill:none;fill-rule:evenodd;stroke:#000000;stroke-width:0.79855949;stroke-linecap:butt;stroke-linejoin:miter;stroke-opacity:1"
           d="M 56.028707,48.896958 C 65.814567,47.507999 85.386266,46.750384 88.227326,44.793214"
           id="path2482" />
        <g
           id="g2410"
           transform="translate(-382.15692,12.767858)">
          <path
             id="path2407"
             d="M 489.13616,26.889364 C 488.73982,27.599587 488.46671,27.965843 487.94643,28.612179 C 482.35481,35.558596 471.88611,36.216276 465.08928,30.66575 C 457.46427,24.438898 456.76591,12.877716 462.94643,5.3978924 C 469.80797,-2.9061296 482.46252,-3.6451386 490.625,3.1657504 C 500.26786,10.844323 504.19644,18.701466 509.37501,21.73718 C 500.00001,21.558608 491.01116,25.639364 489.13616,26.889364 z"
             style="fill:#8f5444;fill-opacity:1;fill-rule:evenodd;stroke:#000000;stroke-width:1.59711897px;stroke-linecap:butt;stroke-linejoin:miter;stroke-opacity:1" />
          <path
             id="path2400"
             d="M 476.16072,18.612179 C 476.85907,17.860103 477.51904,19.182501 477.41072,19.772893 C 477.11715,21.372818 475.09401,21.703199 473.83929,21.112179 C 471.59488,20.054982 471.22736,17.107421 472.41072,15.130036 C 474.14733,12.228144 478.12606,11.817313 480.80357,13.612179 C 484.37228,16.004452 484.82521,21.046059 482.41072,24.41575 C 479.37232,28.656163 473.25452,29.150483 469.19643,26.112179 C 464.28154,22.432385 463.74618,15.231546 467.41072,10.487179 C 471.72924,4.896106 480.01711,4.3198908 485.44643,8.612179 C 491.05207,13.043862 492.49528,20.833223 489.14285,26.840656"
             style="fill:none;fill-rule:evenodd;stroke:#000000;stroke-width:1.59711897px;stroke-linecap:butt;stroke-linejoin:miter;stroke-opacity:1" />
        </g>
        <path
           style="fill:none;fill-rule:evenodd;stroke:#000000;stroke-width:0.79855949;stroke-linecap:butt;stroke-linejoin:miter;stroke-opacity:1"
           d="M 136.84092,35.196764 C 129.1385,40.121258 126.99193,44.477541 126.99193,44.477541"
           id="path2426" />
        <path
           style="fill:none;fill-rule:evenodd;stroke:#000000;stroke-width:0.79855949;stroke-linecap:butt;stroke-linejoin:miter;stroke-opacity:1"
           d="M 128.32487,36.886078 C 120.24365,43.578339 119.99112,45.851182 119.99112,45.851182"
           id="path2428" />
        <path
           style="fill:none;fill-rule:evenodd;stroke:#000000;stroke-width:0.79855949;stroke-linecap:butt;stroke-linejoin:miter;stroke-opacity:1"
           d="M 115.94339,38.858567 C 109.25113,44.035599 108.74605,46.876653 108.74605,46.876653"
           id="path2430" />
        <path
           style="fill:none;fill-rule:evenodd;stroke:#000000;stroke-width:0.79855949;stroke-linecap:butt;stroke-linejoin:miter;stroke-opacity:1"
           d="M 144.46023,33.429927 C 136.75781,38.354421 134.61124,42.710704 134.61124,42.710704"
           id="path2432" />
        <path
           style="fill:none;fill-rule:evenodd;stroke:#000000;stroke-width:0.79855949;stroke-linecap:butt;stroke-linejoin:miter;stroke-opacity:1"
           d="M 121.86628,37.895301 C 115.17402,43.072333 114.66894,45.913387 114.66894,45.913387"
           id="path2436" />
        <path
           style="fill:none;fill-rule:evenodd;stroke:#000000;stroke-width:0.79855949;stroke-linecap:butt;stroke-linejoin:miter;stroke-opacity:1"
           d="M 127.39665,47.228252 C 129.40558,48.29968 131.14665,48.701466 131.14665,48.701466"
           id="path2438" />
        <path
           style="fill:none;fill-rule:evenodd;stroke:#000000;stroke-width:0.79855949;stroke-linecap:butt;stroke-linejoin:miter;stroke-opacity:1"
           d="M 122.39665,48.679144 C 124.40558,49.750572 126.14665,50.152358 126.14665,50.152358"
           id="path2444" />
        <path
           style="fill:none;fill-rule:evenodd;stroke:#000000;stroke-width:0.79855949;stroke-linecap:butt;stroke-linejoin:miter;stroke-opacity:1"
           d="M 117.35201,50.197001 C 119.36094,51.268429 121.10201,51.670215 121.10201,51.670215"
           id="path2446" />
        <path
           style="fill:none;fill-rule:evenodd;stroke:#000000;stroke-width:0.79855949;stroke-linecap:butt;stroke-linejoin:miter;stroke-opacity:1"
           d="M 132.35201,45.554144 C 134.36094,46.625572 136.10201,47.027358 136.10201,47.027358"
           id="path2448" />
        <path
           style="fill:none;fill-rule:evenodd;stroke:#000000;stroke-width:0.79855953;stroke-linecap:butt;stroke-linejoin:miter;stroke-opacity:1"
           d="M 108.49351,50.285918 C 107.60963,51.169802 106.72574,51.674878 105.21052,50.854129"
           id="path2460" />
        <path
           style="fill:none;fill-rule:evenodd;stroke:#000000;stroke-width:0.79855953;stroke-linecap:butt;stroke-linejoin:miter;stroke-opacity:1"
           d="M 99.275866,51.106667 C 98.202576,51.927416 97.192426,52.432492 96.371676,51.548609"
           id="path2462" />
        <path
           style="fill:none;fill-rule:evenodd;stroke:#000000;stroke-width:0.79855953;stroke-linecap:butt;stroke-linejoin:miter;stroke-opacity:1"
           d="M 90.626436,51.611743 C 89.111206,52.811299 87.406576,52.432492 87.027766,51.864281"
           id="path2464" />
        <path
           style="fill:none;fill-rule:evenodd;stroke:#000000;stroke-width:0.79855953;stroke-linecap:butt;stroke-linejoin:miter;stroke-opacity:1"
           d="M 68.718747,52.11682 C 70.739057,53.37951 74.337727,53.758317 76.421167,52.369358"
           id="path2470" />
        <path
           style="fill:none;fill-rule:evenodd;stroke:#000000;stroke-width:0.79855953;stroke-linecap:butt;stroke-linejoin:miter;stroke-opacity:1"
           d="M 63.415447,52.11682 C 59.374837,52.369358 56.154977,51.99055 55.649907,51.548609 C 55.144827,51.106667 55.018557,51.106667 55.018557,51.106667"
           id="path2472" />
        <path
           style="fill:#ffffff;fill-opacity:1;fill-rule:evenodd;stroke:#000000;stroke-width:1.59711897px;stroke-linecap:butt;stroke-linejoin:miter;stroke-opacity:1"
           d="M 81.977006,77.118095 C 85.323136,81.22184 82.418946,93.533076 78.062667,89.176791 C 77.873257,92.270386 77.999527,93.785616 79.830427,94.795766 C 78.449257,96.683276 78.220507,99.814956 80.272367,102.56132 C 81.535056,98.394436 82.924016,94.353826 85.765076,92.459786 C 88.606126,90.565751 90.404576,86.345821 90.500166,81.853185 C 90.563296,78.948996 90.184496,75.476597 87.469706,72.067332 L 87.373119,72.089434 L 77.77667,69.94286 L 81.977006,77.118095 z"
           id="path2512"
           sodipodi:nodetypes="ccccssc" />
        <path
           style="fill:#ffffff;fill-opacity:1;fill-rule:evenodd;stroke:#000000;stroke-width:1.59711897px;stroke-linecap:butt;stroke-linejoin:miter;stroke-opacity:1"
           d="M 59.753647,66.764031 C 65.877697,64.112381 76.294897,65.690744 80.840577,67.58478 C 85.386266,69.478816 88.858666,67.837319 91.131506,66.637762 C 89.742546,72.256736 85.638806,73.266888 83.618496,72.888081 C 83.365966,74.466445 82.292676,77.496902 80.272367,78.822728 C 78.630877,75.350328 73.327577,68.847471 63.036647,73.203754 L 63.003189,72.973317 L 59.720193,73.478393 L 57.321081,70.826743 L 59.753647,66.764031 z"
           id="path2510" />
        <path
           style="fill:#ffffff;fill-rule:evenodd;stroke:#000000;stroke-width:1.59711897px;stroke-linecap:butt;stroke-linejoin:miter;stroke-opacity:1"
           d="M 55.198157,91.527706 C 54.138997,88.303965 54.496067,79.446367 58.554087,77.370633 C 63.040177,75.075934 65.120087,75.918539 65.120087,75.918539 C 62.941597,73.173638 61.914597,71.667608 60.240867,70.778397 C 59.670377,68.2144 59.774367,65.637632 58.112147,63.417901 C 57.038867,66.448359 55.902437,70.552104 53.061387,73.645696 C 50.220337,76.739288 46.874207,84.062894 48.452567,91.765306 L 52.522856,95.954288 L 56.437197,94.439059 L 55.198157,91.527706 z"
           id="path2508"
           sodipodi:nodetypes="cscccsc" />
        <path
           style="fill:#ffffff;fill-rule:evenodd;stroke:#000000;stroke-width:1.59711897px;stroke-linecap:butt;stroke-linejoin:miter;stroke-opacity:1"
           d="M 75.253787,148.88004 C 75.253787,148.88004 75.253787,114.50504 75.253787,110.84433 C 75.253787,107.18361 73.825217,102.18361 66.146647,100.57647 C 58.468077,98.969326 60.164507,89.415752 60.164507,89.415752 C 57.753787,92.183606 55.242027,89.999119 54.003787,92.808606 C 52.039507,92.808606 52.218077,91.112176 50.075217,91.201466 C 47.932357,91.290756 46.325217,94.415756 46.325217,94.415756 C 51.146647,97.005036 53.378787,101.46933 56.146647,103.5229 C 58.914507,105.57647 67.396647,107.18361 67.396647,113.79076 C 67.396647,120.3979 67.396647,131.55861 67.396647,135.93361 C 67.396647,140.30861 68.468077,148.88004 75.253787,148.88004 z"
           id="path2504"
           sodipodi:nodetypes="cssccccsssc" />
        <path
           style="fill:#955f4f;fill-opacity:1;fill-rule:evenodd;stroke:#000000;stroke-width:1.59711897px;stroke-linecap:butt;stroke-linejoin:miter;stroke-opacity:1"
           d="M 118.91071,153.19521 C 124.97162,152.18506 131.22194,146.50295 131.34821,142.27294 C 131.47448,138.04292 129.20164,138.61114 129.20164,138.61114 C 126.99193,141.01025 121.49922,143.09369 120.04713,143.21996 C 120.02687,145.25814 119.97578,148.80869 118.91071,153.19521 z"
           id="path2518"
           sodipodi:nodetypes="csccc" />
        <path
           style="fill:none;fill-rule:evenodd;stroke:#000000;stroke-width:1.59711897px;stroke-linecap:butt;stroke-linejoin:miter;stroke-opacity:1"
           d="M 127.56014,119.3551 C 128.50716,120.55466 130.21179,125.16348 126.54999,122.76437 C 122.88818,120.36526 121.12042,121.18601 121.12042,121.18601"
           id="path2522"
           sodipodi:nodetypes="csc" />
        <path
           style="fill:none;fill-rule:evenodd;stroke:#000000;stroke-width:1.59711897px;stroke-linecap:butt;stroke-linejoin:miter;stroke-opacity:1"
           d="M 126.92879,123.08004 C 128.69656,124.469 130.17223,128.03188 126.10805,126.64714 C 124.23644,126.00945 123.52795,124.95071 120.80474,125.48643"
           id="path2524"
           sodipodi:nodetypes="csc" />
        <path
           style="fill:none;fill-rule:evenodd;stroke:#000000;stroke-width:1.59711897px;stroke-linecap:butt;stroke-linejoin:miter;stroke-opacity:1"
           d="M 121.51772,129.21585 C 123.34862,128.14256 132.64247,133.3394 126.77095,126.83655"
           id="path2526"
           sodipodi:nodetypes="cc" />
        <path
           style="fill:none;fill-rule:evenodd;stroke:#000000;stroke-width:1.59711897px;stroke-linecap:butt;stroke-linejoin:miter;stroke-opacity:1"
           d="M 117.64802,118.9763 C 117.64802,118.9763 120.55221,114.62001 124.71909,117.7136 C 128.88597,120.8072 128.44402,118.72376 128.50716,117.90301 C 128.52983,117.60828 128.15751,116.69141 127.41785,115.91749"
           id="path2520"
           sodipodi:nodetypes="cssc" />
        <rect
           style="fill:#ffffff;fill-opacity:1;stroke:#000000;stroke-width:1.59711905;stroke-opacity:1"
           id="rect2530"
           width="12.879445"
           height="6.0609155"
           x="65.18322"
           y="111.84209"
           ry="3.0304577" />
        <path
           style="fill:none;fill-rule:evenodd;stroke:#000000;stroke-width:1.59711897px;stroke-linecap:butt;stroke-linejoin:miter;stroke-opacity:1"
           d="M 121.49922,113.23105 L 121.49922,99.088916 L 128.31775,99.088916 L 128.31775,109.44298"
           id="path2534" />
        <path
           style="fill:#800000;fill-opacity:1;fill-rule:evenodd;stroke:#000000;stroke-width:1.59711897;stroke-linecap:round;stroke-linejoin:miter;stroke-opacity:1"
           d="M 146.10647,84.901786 C 143.0927,84.571509 139.48352,86.043751 135.82522,88.151786 C 132.16692,90.259821 128.57417,93.085826 126.10647,96.026786 C 125.71439,96.427986 125.57891,97.014426 125.75529,97.546946 C 125.93166,98.079466 126.39041,98.469096 126.94446,98.556936 C 127.49852,98.644766 128.05528,98.416146 128.38772,97.964286 C 130.52884,95.412536 133.94402,92.693896 137.32522,90.745536 C 140.70642,88.797177 144.16767,87.726986 145.76272,87.901786 C 147.73932,88.118399 149.17561,88.91113 150.01272,89.808036 C 150.84983,90.704942 151.03008,91.623386 150.88772,92.089286 C 150.64621,92.619206 150.73321,93.241026 151.11089,93.684316 C 151.48858,94.127596 152.08868,94.312246 152.65024,94.157956 C 153.21179,94.003666 153.6333,93.538316 153.73147,92.964286 C 154.28359,91.157336 153.57281,89.247425 152.20022,87.776786 C 150.82763,86.306147 148.7387,85.190249 146.10647,84.901786 z"
           id="path3306" />
        <path
           style="fill:#800000;fill-opacity:1;fill-rule:evenodd;stroke:#000000;stroke-width:1.59711897;stroke-linecap:round;stroke-linejoin:miter;stroke-opacity:1"
           d="M 127.16897,65.276786 C 124.88922,65.276786 121.87577,65.933854 119.26272,67.808036 C 116.64967,69.682218 114.55965,72.935086 114.70022,77.433036 C 114.96568,85.927713 118.71199,92.313826 122.91897,98.433036 C 123.39359,99.114766 124.33099,99.282656 125.01272,98.808036 C 125.69445,98.333416 125.86234,97.396016 125.38772,96.714286 C 121.26089,90.711657 117.93984,85.007049 117.70022,77.339286 C 117.58823,73.756014 119.04851,71.654349 121.01272,70.245536 C 122.97693,68.836723 125.53438,68.276786 127.16897,68.276786 C 128.62612,68.276787 130.70083,69.091765 132.45022,70.214286 C 134.19961,71.336807 135.68312,72.842039 135.98147,73.339286 C 136.40431,74.05553 137.32773,74.293379 138.04397,73.870536 C 138.76021,73.447693 138.99806,72.52428 138.57522,71.808036 C 137.73715,70.411247 136.11391,68.991194 134.07522,67.683036 C 132.03653,66.374878 129.62613,65.276787 127.16897,65.276786 z"
           id="path3308" />
        <path
           style="fill:#800000;fill-opacity:1;fill-rule:evenodd;stroke:#000000;stroke-width:1.59711897;stroke-linecap:round;stroke-linejoin:miter;stroke-opacity:1"
           d="M 114.07522,65.526786 C 112.03922,65.348983 110.25938,65.781291 108.85647,66.464286 C 106.05065,67.830276 104.57522,70.120536 104.57522,70.120536 C 104.12649,70.819521 104.32936,71.74993 105.02834,72.198661 C 105.72733,72.647392 106.65774,72.444521 107.10647,71.745536 C 107.10647,71.745536 108.17656,70.121773 110.16897,69.151786 C 112.16138,68.181799 114.93752,67.734979 119.13772,70.651786 C 123.20784,73.478256 124.66496,77.917519 124.98147,83.026786 C 125.29798,88.136053 124.36843,93.744846 123.79397,98.276786 C 123.68313,98.827816 123.88961,99.394586 124.32894,99.745176 C 124.76826,100.09577 125.36671,100.17137 125.87942,99.941026 C 126.39213,99.710686 126.73306,99.213076 126.76272,98.651786 C 127.32466,94.218626 128.32788,88.431322 127.98147,82.839286 C 127.63506,77.24725 125.84647,71.67002 120.82522,68.183036 C 118.37964,66.484715 116.11122,65.704589 114.07522,65.526786 z"
           id="path3310" />
        <path
           style="fill:#800000;fill-opacity:1;fill-rule:evenodd;stroke:#000000;stroke-width:1.59711897;stroke-linecap:round;stroke-linejoin:miter;stroke-opacity:1"
           d="M 139.23147,72.308036 C 137.77679,72.563243 136.4132,73.07599 135.20022,73.808036 C 132.77427,75.272128 130.87812,77.534876 129.35647,80.151786 C 126.31316,85.385606 124.69315,92.123016 123.79397,97.839286 C 123.66453,98.659086 124.22417,99.428596 125.04397,99.558036 C 125.86377,99.687476 126.63328,99.127836 126.76272,98.308036 C 127.63129,92.786366 129.24829,86.298519 131.95022,81.651786 C 133.30119,79.328419 134.9192,77.483122 136.76272,76.370536 C 138.60624,75.25795 140.68064,74.801626 143.32522,75.308036 C 148.95309,76.385717 150.86527,78.46717 151.57522,80.151786 C 151.93019,80.994094 151.97916,81.816415 151.91897,82.433036 C 151.88887,82.741347 151.84772,82.984437 151.79397,83.151786 C 151.74022,83.319135 151.61051,83.434432 151.79397,83.214286 C 151.25894,83.852865 151.34289,84.80426 151.98147,85.339286 C 152.62005,85.874312 153.57144,85.790365 154.10647,85.151786 C 154.44776,84.742236 154.51341,84.476337 154.63772,84.089286 C 154.76203,83.702235 154.86818,83.234616 154.91897,82.714286 C 155.02056,81.673626 154.90148,80.362936 154.32522,78.995536 C 153.17269,76.260735 150.12911,73.565701 143.88772,72.370536 C 142.24269,72.05553 140.68615,72.052829 139.23147,72.308036 z"
           id="path3312" />
        <path
           style="fill:#800000;fill-opacity:1;fill-rule:evenodd;stroke:#000000;stroke-width:1.59711897;stroke-linecap:round;stroke-linejoin:miter;stroke-opacity:1"
           d="M 140.95022,63.308036 C 138.11671,63.285725 135.48039,65.23445 132.91897,67.401786 C 132.46711,67.734222 132.23849,68.290989 132.32632,68.845041 C 132.41416,69.399094 132.80379,69.857845 133.33631,70.034219 C 133.86883,70.210593 134.45527,70.075117 134.85647,69.683036 C 137.21958,67.683493 139.74343,66.29878 140.91897,66.308036 C 141.50674,66.312664 141.74425,66.400976 142.13772,67.026786 C 142.53119,67.652596 142.92253,68.967406 142.98147,71.089286 C 143.03005,72.83814 142.11104,74.848256 140.48147,76.964286 C 138.8519,79.080316 136.5846,81.24414 134.23147,83.339286 C 131.87834,85.434432 129.43572,87.449592 127.51272,89.370536 C 125.58972,91.291476 124.03356,93.072586 123.79397,95.276786 C 123.70768,96.105216 124.30929,96.846746 125.13772,96.933036 C 125.96615,97.019326 126.70768,96.417716 126.79397,95.589286 C 126.87005,94.889306 127.8634,93.267966 129.63772,91.495536 C 131.41204,89.723111 133.80248,87.724153 136.20022,85.589286 C 138.59796,83.454419 141.00969,81.206125 142.85647,78.808036 C 144.70325,76.409947 146.05916,73.823618 145.98147,71.026786 C 145.91414,68.602979 145.51846,66.784126 144.66897,65.433036 C 143.81948,64.081946 142.36698,63.319191 140.95022,63.308036 z"
           id="path3314" />
        <rect
           style="fill:#ffffff;fill-opacity:1;stroke:#000000;stroke-width:1.59711897;stroke-opacity:1"
           id="rect2532"
           width="12.879445"
           height="6.0609155"
           x="118.21621"
           y="95.805923"
           ry="3.0304577" />
        <path
           style="fill:none;fill-rule:evenodd;stroke:#000000;stroke-width:1.59711897px;stroke-linecap:butt;stroke-linejoin:miter;stroke-opacity:1"
           d="M 151.04619,91.828446 C 151.42499,90.313213 153.76097,90.565751 153.88724,91.133966"
           id="path3336" />
        <path
           style="fill:none;fill-rule:evenodd;stroke:#000000;stroke-width:1.59711897px;stroke-linecap:butt;stroke-linejoin:miter;stroke-opacity:1"
           d="M 151.8038,83.17901 C 152.94022,81.600647 154.70799,82.358261 154.64486,83.368414"
           id="path3338" />
        <path
           style="fill:none;fill-rule:evenodd;stroke:#000000;stroke-width:1.59711897px;stroke-linecap:butt;stroke-linejoin:miter;stroke-opacity:1"
           d="M 132.98971,67.269108 C 134.2524,66.700897 136.84092,67.900453 135.8939,68.784337"
           id="path3340" />
        <path
           style="fill:none;fill-rule:evenodd;stroke:#000000;stroke-width:1.59711897px;stroke-linecap:butt;stroke-linejoin:miter;stroke-opacity:1"
           d="M 104.70544,69.983893 C 105.71559,68.97374 107.79903,69.731355 107.29395,71.309718"
           id="path3342"
           sodipodi:nodetypes="cc" />
        <path
           id="path3372"
           style="fill:none;fill-rule:evenodd;stroke:#000000;stroke-width:3.19423795;stroke-linecap:butt;stroke-linejoin:miter;stroke-opacity:1"
           d="M 100.5,177 L 100.5,177 C 25.75381,124.72588 23.682688,69.69032 24.5,40 C 25.31731,10.30968 29.5,5 29.5,5 L 100.5,5 L 171.5,5 C 171.5,5 175.68269,10.309678 176.5,40 C 177.31731,69.690322 175.24619,124.72588 100.5,177 z"
           sodipodi:nodetypes="ccscccsc" />
        <path
           style="fill:none;fill-rule:evenodd;stroke:#000000;stroke-width:1.59711897px;stroke-linecap:square;stroke-linejoin:miter;stroke-opacity:1"
           d="M 25.5,60.5 L 175.5,60.5"
           id="path3377" />
        <path
           style="fill:#ffffff;fill-opacity:1;fill-rule:evenodd;stroke:#000000;stroke-width:1.59711897px;stroke-linecap:butt;stroke-linejoin:miter;stroke-opacity:1"
           d="M 71.830471,83.913704 C 71.302131,83.611058 70.263661,83.643053 70.263661,83.643053 C 70.263661,83.643053 68.243356,83.579919 64.109934,83.431549 C 68.281304,80.843033 73.201304,76.360481 73.453844,74.718983 C 75.221604,79.012132 73.769511,86.146333 72.948761,86.777679 C 72.814371,84.94096 72.358811,84.21635 71.830471,83.913704 z"
           id="path2516"
           sodipodi:nodetypes="cccccs" />
        <path
           style="fill:none;fill-rule:evenodd;stroke:#000000;stroke-width:1.59711897px;stroke-linecap:butt;stroke-linejoin:miter;stroke-opacity:1"
           d="M 100.5,60 L 100.5,175"
           id="path3397" />
      </g>
    </g>
  </g>
</svg>
