<?xml version="1.0" encoding="UTF-8" standalone="no"?>
<!-- Created with Inkscape (http://www.inkscape.org/) -->

<svg
   xmlns:dc="http://purl.org/dc/elements/1.1/"
   xmlns:cc="http://creativecommons.org/ns#"
   xmlns:rdf="http://www.w3.org/1999/02/22-rdf-syntax-ns#"
   xmlns:svg="http://www.w3.org/2000/svg"
   xmlns="http://www.w3.org/2000/svg"
   xmlns:sodipodi="http://sodipodi.sourceforge.net/DTD/sodipodi-0.dtd"
   xmlns:inkscape="http://www.inkscape.org/namespaces/inkscape"
   version="1.0"
   width="750"
   height="500"
   id="svg2"
   sodipodi:version="0.32"
   inkscape:version="0.48.4 r9939"
   sodipodi:docname="Flag_of_Guna_Yala.svg"
   inkscape:output_extension="org.inkscape.output.svg.inkscape"
   inkscape:export-filename="C:\Users\Zuul\Desktop\PROIECTA\Flags\Flag_of_Guna_Yala.png"
   inkscape:export-xdpi="59.939999"
   inkscape:export-ydpi="59.939999">
  <metadata
     id="metadata12">
    <rdf:RDF>
      <cc:Work
         rdf:about="">
        <dc:format>image/svg+xml</dc:format>
        <dc:type
           rdf:resource="http://purl.org/dc/dcmitype/StillImage" />
        <dc:title></dc:title>
      </cc:Work>
    </rdf:RDF>
  </metadata>
  <sodipodi:namedview
     inkscape:window-height="706"
     inkscape:window-width="1366"
     inkscape:pageshadow="2"
     inkscape:pageopacity="0.0"
     guidetolerance="10.0"
     gridtolerance="10.0"
     objecttolerance="10.0"
     borderopacity="1.0"
     bordercolor="#666666"
     pagecolor="#ffffff"
     id="base"
     showgrid="false"
     showguides="true"
     inkscape:guide-bbox="true"
     inkscape:zoom="0.507"
     inkscape:cx="183.07325"
     inkscape:cy="177.36864"
     inkscape:window-x="-8"
     inkscape:window-y="-8"
     inkscape:current-layer="svg2"
     inkscape:window-maximized="1" />
  <defs
     id="defs4" />
  <path
     d="M 750.9862,0 L 750.9862,254 L 0,254 L 0,0 L 750.9862,0 z"
     id="path14"
     style="fill:#da121a;fill-opacity:1;stroke:none"
     sodipodi:nodetypes="ccccc" />
  <path
     sodipodi:nodetypes="ccccc"
     style="fill:#078930;fill-opacity:1;stroke:none"
     id="path2387"
     d="M 750.9862,256 L 750.9862,500 L 0,500 L 0,256 L 750.9862,256 z" />
  <path
     d="M 750.9862,107.3335 L 750.9862,392.6665 L 0,392.6665 L 0,107.3335 L 750.9862,107.3335 z"
     id="path16"
     style="fill:#ffff00;stroke:none"
     sodipodi:nodetypes="ccccc" />
  <g
     style="fill-rule:evenodd"
     id="g4541"
     transform="matrix(2.6332651,0,0,2.6239271,294.84079,74.255885)">
    <g
       id="g4870"
       style="fill:#d38d5f">
      <path
         style="fill:#d38d5f;fill-opacity:1;fill-rule:evenodd;stroke:#000000;stroke-width:0.28222224000000001;stroke-linecap:butt;stroke-linejoin:miter;stroke-miterlimit:4;stroke-dasharray:none;stroke-opacity:1"
         d="M 49.397115,87.282692 L 51.407692,86.651923 L 49.2,78.136538 L 47.347115,79.792308 L 49.397115,87.282692 z"
         id="path4868" />
      <g
         style="stroke:#000000;stroke-width:0.28222224000000001;stroke-miterlimit:4;stroke-dasharray:none;stroke-opacity:1;fill:#d38d5f"
         id="g3534"
         transform="matrix(-1,0,0,1,60.358436,0)">
        <path
           id="path3536"
           class="fil7 str6"
           d="M 11.577777,76.751408 C 10.749377,76.543508 10.318277,76.454108 9.1558768,76.880908 C 8.9642768,77.488608 8.5747768,78.022808 9.0302768,78.870608 C 7.6782768,78.192908 7.2231768,79.739308 7.9261768,80.876508 C 7.1743768,80.348808 6.4859768,82.440608 7.7728768,83.990608 C 7.3655768,83.623408 6.8719768,85.141108 7.4746768,85.818808 C 7.9257768,86.200408 8.1906768,86.510008 8.6260768,86.818108 C 11.183977,87.930808 10.257177,85.539008 8.9316768,84.901108 C 11.346177,87.011008 12.170077,84.690408 10.062977,83.163008 C 12.515777,84.841308 12.905077,81.670308 11.212077,80.938008 C 13.131477,82.098608 12.963677,79.589108 11.591377,78.742508 L 10.961577,77.910108 L 11.577777,76.751408 L 11.577777,76.751408 z"
           sodipodi:nodetypes="ccccccccccccc"
           style="fill:#d38d5f;stroke:#000000;stroke-width:0.28222224000000001;stroke-linejoin:bevel;stroke-miterlimit:4;stroke-dasharray:none;stroke-opacity:1" />
        <path
           id="path3538"
           class="fil7 str5"
           d="M 10.265546,74.9868 C 9.252446,74.3647 7.955746,76.2004 9.771546,77.4017 C 10.316646,77.9079 10.885646,78.2675 11.649546,78.3223 C 12.244346,79.4225 11.989783,79.129487 12.994983,79.944687 C 12.309856,81.461596 11.59211,84.484544 10.777166,87.204592 C 11.372966,87.643392 13.218246,88.1095 13.718046,88.282 C 17.562746,92.2996 20.070746,94.8347 22.190546,96.9662 L 28.334446,89.4902 C 24.484646,86.9851 20.141346,84.236 17.563346,82.3822 C 15.832246,78.501 16.082346,77.9633 15.051146,77.2561 C 13.804846,76.634 13.425946,75.9593 12.713946,75.372 C 12.213346,75.2364 11.093046,75.5292 10.265546,74.9868 L 10.265546,74.9868 z"
           sodipodi:nodetypes="ccccccccccccc"
           style="fill:#d38d5f;fill-opacity:1;stroke:#000000;stroke-width:0.28222224000000001;stroke-miterlimit:4;stroke-dasharray:none;stroke-opacity:1" />
        <path
           id="path3540"
           class="fil7 str5"
           d="M 9.0622768,78.904308 C 9.5488768,80.078208 10.388777,80.453708 11.398177,81.033408 M 9.0622768,78.904308 L 9.0622768,78.904308 L 9.0622768,78.904308 z"
           sodipodi:nodetypes="cc"
           style="fill:#d38d5f;stroke:#000000;stroke-width:0.28222224000000001;stroke-miterlimit:4;stroke-dasharray:none;stroke-opacity:1" />
        <path
           id="path3542"
           class="fil7 str5"
           d="M 7.8869768,80.707408 C 8.3605768,81.891708 9.5046768,82.934308 10.489177,83.428108 M 7.8869768,80.707408 L 7.8869768,80.707408 L 7.8869768,80.707408 z"
           sodipodi:nodetypes="cc"
           style="fill:#d38d5f;stroke:#000000;stroke-width:0.28222224000000001;stroke-miterlimit:4;stroke-dasharray:none;stroke-opacity:1" />
        <path
           id="path3544"
           class="fil7 str5"
           d="M 7.5360768,83.621408 C 8.0952768,84.525308 8.5632768,84.610508 9.4541768,85.267808 M 7.5360768,83.621408 L 7.5360768,83.621408 L 7.5360768,83.621408 z"
           sodipodi:nodetypes="cc"
           style="fill:#d38d5f;stroke:#000000;stroke-width:0.28222224000000001;stroke-miterlimit:4;stroke-dasharray:none;stroke-opacity:1" />
        <path
           id="path3546"
           class="fil7 str7"
           d="M 25.820646,87.9028 L 25.820646,87.9028 C 33.621246,93.0954 38.283746,93.7016 41.669046,97.1233 C 69.825039,87.385321 73.108314,99.672296 80.740249,94.449405 C 83.089657,99.87569 82.950973,105.30198 82.051475,110.72826 C 62.633876,115.2991 53.191006,110.68531 41.347546,112.8109 C 38.278746,113.0177 34.015746,110.1265 30.961746,106.9003 C 25.047046,100.513 27.638046,102.3259 20.048146,94.847"
           sodipodi:nodetypes="cccccccc"
           style="fill:#d38d5f;stroke:#000000;stroke-width:0.28222224000000001;stroke-linejoin:bevel;stroke-miterlimit:4;stroke-dasharray:none;stroke-opacity:1" />
        <polyline
           id="polyline3548"
           class="fil2 str5"
           points="51.9853,97.1234 51.2119,97.94 50.4707,98.8266 49.7828,99.7542 49.1064,100.755 "
           style="fill:#d38d5f;stroke:#000000;stroke-width:0.28222224000000001;stroke-miterlimit:4;stroke-dasharray:none;stroke-opacity:1"
           transform="matrix(-1,0,0,1,93.654246,0)" />
        <line
           id="line3550"
           class="fil2 str5"
           x1="18.779833"
           y1="87.310593"
           x2="15.761333"
           y2="85.376389"
           style="fill:#d38d5f;stroke:#000000;stroke-width:0.28222224000000001;stroke-miterlimit:4;stroke-dasharray:none;stroke-opacity:1" />
        <path
           style="fill:#d38d5f;fill-rule:evenodd;stroke:#000000;stroke-width:0.28222224000000001;stroke-linecap:butt;stroke-linejoin:miter;stroke-miterlimit:4;stroke-dasharray:none;stroke-opacity:1"
           d="M 53.634049,107.49251 C 59.952683,108.33737 66.271316,108.39179 72.58995,107.15799"
           id="path3552"
           sodipodi:nodetypes="cc" />
        <path
           style="fill:#d38d5f;fill-rule:evenodd;stroke:#000000;stroke-width:0.28222224000000001;stroke-linecap:butt;stroke-linejoin:miter;stroke-miterlimit:4;stroke-dasharray:none;stroke-opacity:1"
           d="M 78.109463,95.672946 C 75.105962,98.32688 77.144817,100.61074 80.506827,100.46768"
           id="path3554"
           sodipodi:nodetypes="cc" />
        <path
           style="fill:#d38d5f;fill-rule:evenodd;stroke:#000000;stroke-width:0.28222224000000001;stroke-linecap:butt;stroke-linejoin:miter;stroke-miterlimit:4;stroke-dasharray:none;stroke-opacity:1"
           d="M 35.570191,96.56499 C 39.26148,98.632096 41.074935,101.01217 43.041046,103.36681"
           id="path3556"
           sodipodi:nodetypes="cc" />
      </g>
    </g>
    <g
       transform="matrix(0.959055,-0.2832198,0.2832198,0.959055,-69.074558,45.163171)"
       id="g4863">
      <g
         transform="matrix(0.2148963,0.1386624,-8.3147628e-2,0.3583751,72.075863,-116.10535)"
         style="stroke:#000000;stroke-width:1.1598177;stroke-miterlimit:4;stroke-dasharray:none;stroke-opacity:1;display:inline"
         inkscape:label="Meubles"
         id="layer8">
        <path
           id="path8367"
           style="fill:#884800;fill-opacity:1;fill-rule:evenodd;stroke:#000000;stroke-width:1.1598177;stroke-linecap:butt;stroke-linejoin:miter;stroke-miterlimit:4;stroke-dasharray:none;stroke-opacity:1"
           d="M 337.61412,406.85579 C 335.80024,425.59534 331.7799,458.88742 324.09077,476.33556 L 330.60906,482.62723 C 345.18958,453.6927 352.74971,423.25264 351.19609,401.63185 C 350.81182,377.64845 342.4269,353.84153 325.53719,336.12251 C 312.00105,319.19188 284.62089,304.84821 254.27278,293.4996 L 253.77013,302.57679 C 271.87336,310.43515 298.4807,330.10487 312.7083,343.22622 C 330.53911,359.06339 336.38429,383.88182 337.61412,406.85579 z"
           sodipodi:nodetypes="ccccccccc" />
      </g>
      <path
         style="fill:none;fill-rule:evenodd;stroke:#000000;stroke-width:0.42333338;stroke-linecap:butt;stroke-linejoin:miter;stroke-miterlimit:4;stroke-dasharray:none;stroke-opacity:1"
         d="M 101.46982,27.654714 L 102.13885,99.687138"
         id="path4861" />
    </g>
    <g
       id="layer1"
       inkscape:label="Escudo" />
    <g
       id="layer4"
       inkscape:label="Piezas" />
    <g
       id="layer2"
       inkscape:label="Ornamento" />
    <g
       id="layer6"
       inkscape:label="Borde 3px" />
    <g
       transform="matrix(0.7835895,0.6212789,-0.6212789,0.7835895,25.553154,-26.54834)"
       id="_41444120">
      <g
         id="g1934">
        <path
           id="path2849"
           class="fil3 str3"
           d="M 42.4228,50.2849 C 42.4228,50.2849 42.7409,53.1536 42.8518,56.4775 C 42.9629,59.8014 42.8669,63.5804 42.8669,63.5804 C 43.0446,61.5631 43.9993,60.9831 44.892,59.6814 L 45.4789,59.4799 L 45.4994,59.4729 L 46.0864,59.2714 C 47.5873,60.1756 48.7419,59.7439 50.1533,61.2948 C 50.1533,61.2948 47.9058,58.4479 45.9732,55.6954 C 44.0406,52.943 42.4228,50.2849 42.4228,50.2849 L 42.4228,50.2849 z"
           sodipodi:nodetypes="csccccccsc"
           style="fill:#e6e6e6;stroke:#000000;stroke-width:0.25" />
        <path
           id="path2851"
           class="fil3 str3"
           d="M 42.7933,51.3264 L 45.4977,59.4731 M 42.7933,51.3264 L 42.7933,51.3264 L 42.7933,51.3264 z"
           sodipodi:nodetypes="cc"
           style="fill:#e6e6e6;stroke:#000000;stroke-width:0.25" />
        <path
           id="_40759216"
           class="fil4 str4"
           d="M 44.8212,59.7053 L 46.1743,59.2409 C 46.2728,59.2072 46.3797,59.2597 46.4131,59.3582 L 46.4131,59.3581 C 46.4466,59.4566 46.394,59.5639 46.2956,59.5977 L 44.9424,60.062 C 44.8441,60.0958 44.7372,60.0434 44.7037,59.9449 L 44.7036,59.9448 C 44.6702,59.8464 44.7229,59.7391 44.8213,59.7054 L 44.8212,59.7053 z"
           style="fill:#e6e6e6;fill-opacity:0.90196102;stroke:#000000;stroke-width:0.25;stroke-opacity:0.90196102" />
        <polygon
           id="path2856"
           class="fil3 str3"
           points="45.0503,60.024 45.4174,61.8103 47.0008,61.2668 46.213,59.644 45.0503,60.024 "
           sodipodi:nodetypes="ccccc"
           style="fill:#e6e6e6;stroke:#000000;stroke-width:0.25" />
      </g>
      <rect
         id="rect3781"
         class="fil5 str3"
         transform="matrix(-0.150766,-0.456518,0.455919,-0.152571,65.236,120.608)"
         width="128.964"
         height="2.0092001"
         x="0"
         y="0"
         style="fill:#828282;stroke:#000000;stroke-width:0.25" />
      <g
         id="g1999">
        <g
           id="g1942">
          <polygon
             id="path3783"
             class="fil6 str3"
             points="64.3079,118.453 61.9187,121.672 59.2634,112.849 61.3532,109.505 64.3079,118.453 "
             style="fill:#e3e4e5;stroke:#000000;stroke-width:0.25" />
          <polygon
             id="path1930"
             class="fil6 str3"
             points="65.6152,117.971 69.4519,119.136 66.3323,110.466 62.6623,109.023 65.6152,117.971 "
             style="fill:#e3e4e5;stroke:#000000;stroke-width:0.25" />
          <path
             id="path1932"
             class="fil6 str3"
             d="M 61.9705,109.199 L 65.5778,120.1263 M 61.9705,109.199 L 61.9705,109.199 L 61.9705,109.199 z"
             style="fill:#e3e4e5;stroke:#000000;stroke-width:0.25" />
        </g>
        <g
           id="g1977">
          <path
             id="path1965"
             class="fil6 str3"
             d="M 61.2466,111.401 L 59.9601,113.1911 M 61.2466,111.401 L 61.2466,111.401 L 61.2466,111.401 z"
             style="fill:#e3e4e5;stroke:#000000;stroke-width:0.25" />
          <path
             id="path1967"
             class="fil6 str3"
             d="M 61.6132,112.612 L 60.3266,114.4021 M 61.6132,112.612 L 61.6132,112.612 L 61.6132,112.612 z"
             style="fill:#e3e4e5;stroke:#000000;stroke-width:0.25" />
          <path
             id="path1969"
             class="fil6 str3"
             d="M 62.008,113.965 L 60.7215,115.7551 M 62.008,113.965 L 62.008,113.965 L 62.008,113.965 z"
             style="fill:#e3e4e5;stroke:#000000;stroke-width:0.25" />
          <path
             id="path1971"
             class="fil6 str3"
             d="M 62.4399,115.274 L 61.1534,117.0641 M 62.4399,115.274 L 62.4399,115.274 L 62.4399,115.274 z"
             style="fill:#e3e4e5;stroke:#000000;stroke-width:0.25" />
          <path
             id="path1973"
             class="fil6 str3"
             d="M 62.8209,116.428 L 61.5344,118.2181 M 62.8209,116.428 L 62.8209,116.428 L 62.8209,116.428 z"
             style="fill:#e3e4e5;stroke:#000000;stroke-width:0.25" />
          <path
             id="path1975"
             class="fil6 str3"
             d="M 63.2274,117.659 L 61.9409,119.4491 M 63.2274,117.659 L 63.2274,117.659 L 63.2274,117.659 z"
             style="fill:#e3e4e5;stroke:#000000;stroke-width:0.25" />
        </g>
        <g
           id="g1985">
          <path
             id="path1987"
             class="fil6 str3"
             d="M 63.893,110.498 L 65.9924,111.1704 M 63.893,110.498 L 63.893,110.498 L 63.893,110.498 z"
             style="fill:#e3e4e5;stroke:#000000;stroke-width:0.25" />
          <path
             id="path1989"
             class="fil6 str3"
             d="M 64.3198,111.69 L 66.4192,112.3623 M 64.3198,111.69 L 64.3198,111.69 L 64.3198,111.69 z"
             style="fill:#e3e4e5;stroke:#000000;stroke-width:0.25" />
          <path
             id="path1991"
             class="fil6 str3"
             d="M 64.8082,113.012 L 66.9076,113.6843 M 64.8082,113.012 L 64.8082,113.012 L 64.8082,113.012 z"
             style="fill:#e3e4e5;stroke:#000000;stroke-width:0.25" />
          <path
             id="path1993"
             class="fil6 str3"
             d="M 65.2401,114.321 L 67.3395,114.9933 M 65.2401,114.321 L 65.2401,114.321 L 65.2401,114.321 z"
             style="fill:#e3e4e5;stroke:#000000;stroke-width:0.25" />
          <path
             id="path1995"
             class="fil6 str3"
             d="M 65.6211,115.475 L 67.7206,116.1474 M 65.6211,115.475 L 65.6211,115.475 L 65.6211,115.475 z"
             style="fill:#e3e4e5;stroke:#000000;stroke-width:0.25" />
          <path
             id="path1997"
             class="fil6 str3"
             d="M 66.0276,116.706 L 68.127,117.3783 M 66.0276,116.706 L 66.0276,116.706 L 66.0276,116.706 z"
             style="fill:#e3e4e5;stroke:#000000;stroke-width:0.25" />
        </g>
      </g>
    </g>
    <g
       id="orla">
      <metadata
         id="CorelCorpID_3Corel-Layer" />
    </g>
    <g
       style="stroke:#000000;stroke-width:0.28222224000000001;stroke-miterlimit:4;stroke-dasharray:none;stroke-opacity:1;fill:#d38d5f"
       id="g2751">
      <path
         id="path15830_0"
         class="fil7 str6"
         d="M 11.577777,76.751408 C 10.749377,76.543508 10.318277,76.454108 9.1558768,76.880908 C 8.9642768,77.488608 8.5747768,78.022808 9.0302768,78.870608 C 7.6782768,78.192908 7.2231768,79.739308 7.9261768,80.876508 C 7.1743768,80.348808 6.4859768,82.440608 7.7728768,83.990608 C 7.3655768,83.623408 6.8719768,85.141108 7.4746768,85.818808 C 7.9257768,86.200408 8.1906768,86.510008 8.6260768,86.818108 C 11.183977,87.930808 10.257177,85.539008 8.9316768,84.901108 C 11.346177,87.011008 12.170077,84.690408 10.062977,83.163008 C 12.515777,84.841308 12.905077,81.670308 11.212077,80.938008 C 13.131477,82.098608 12.963677,79.589108 11.591377,78.742508 L 10.961577,77.910108 L 11.577777,76.751408 L 11.577777,76.751408 z"
         sodipodi:nodetypes="ccccccccccccc"
         style="fill:#d38d5f;stroke:#000000;stroke-width:0.28222224000000001;stroke-linejoin:bevel;stroke-miterlimit:4;stroke-dasharray:none;stroke-opacity:1" />
      <path
         id="path16951_1"
         class="fil7 str5"
         d="M 10.265546,74.9868 C 9.252446,74.3647 7.955746,76.2004 9.771546,77.4017 C 10.316646,77.9079 10.885646,78.2675 11.649546,78.3223 C 12.244346,79.4225 12.384014,79.287179 13.389214,80.102379 C 12.704087,81.619288 11.59211,84.642236 10.777166,87.362284 C 11.372966,87.801084 13.218246,88.1095 13.718046,88.282 C 17.562746,92.2996 20.070746,94.8347 22.190546,96.9662 L 28.334446,89.4902 C 24.484646,86.9851 20.141346,84.236 17.563346,82.3822 C 15.832246,78.501 16.082346,77.9633 15.051146,77.2561 C 13.804846,76.634 13.425946,75.9593 12.713946,75.372 C 12.213346,75.2364 11.093046,75.5292 10.265546,74.9868 L 10.265546,74.9868 z"
         sodipodi:nodetypes="ccccccccccccc"
         style="fill:#d38d5f;stroke:#000000;stroke-width:0.28222224000000001;stroke-miterlimit:4;stroke-dasharray:none;stroke-opacity:1" />
      <path
         id="path22348_2"
         class="fil7 str5"
         d="M 9.0622768,78.904308 C 9.5488768,80.078208 10.388777,80.453708 11.398177,81.033408 M 9.0622768,78.904308 L 9.0622768,78.904308 L 9.0622768,78.904308 z"
         sodipodi:nodetypes="cc"
         style="fill:#d38d5f;stroke:#000000;stroke-width:0.28222224000000001;stroke-miterlimit:4;stroke-dasharray:none;stroke-opacity:1" />
      <path
         id="path22350_3"
         class="fil7 str5"
         d="M 7.8869768,80.707408 C 8.3605768,81.891708 9.5046768,82.934308 10.489177,83.428108 M 7.8869768,80.707408 L 7.8869768,80.707408 L 7.8869768,80.707408 z"
         sodipodi:nodetypes="cc"
         style="fill:#d38d5f;stroke:#000000;stroke-width:0.28222224000000001;stroke-miterlimit:4;stroke-dasharray:none;stroke-opacity:1" />
      <path
         id="path22352_4"
         class="fil7 str5"
         d="M 7.5360768,83.621408 C 8.0952768,84.525308 8.5632768,84.610508 9.4541768,85.267808 M 7.5360768,83.621408 L 7.5360768,83.621408 L 7.5360768,83.621408 z"
         sodipodi:nodetypes="cc"
         style="fill:#d38d5f;stroke:#000000;stroke-width:0.28222224000000001;stroke-miterlimit:4;stroke-dasharray:none;stroke-opacity:1" />
      <path
         id="path2266_5"
         class="fil7 str7"
         d="M 25.820646,87.9028 L 25.820646,87.9028 C 33.621246,93.0954 38.283746,93.7016 41.669046,97.1233 C 69.825039,87.385321 73.108314,99.672296 80.740249,94.449405 C 83.089657,99.87569 82.950973,105.30198 82.051475,110.72826 C 62.633876,115.2991 53.191006,110.68531 41.347546,112.8109 C 38.278746,113.0177 34.015746,110.1265 30.961746,106.9003 C 25.047046,100.513 27.638046,102.3259 20.048146,94.847"
         sodipodi:nodetypes="cccccccc"
         style="fill:#d38d5f;stroke:#000000;stroke-width:0.28222224000000001;stroke-linejoin:bevel;stroke-miterlimit:4;stroke-dasharray:none;stroke-opacity:1" />
      <polyline
         id="_40633560"
         class="fil2 str5"
         points="51.9853,97.1234 51.2119,97.94 50.4707,98.8266 49.7828,99.7542 49.1064,100.755 "
         style="fill:#d38d5f;stroke:#000000;stroke-width:0.28222224000000001;stroke-miterlimit:4;stroke-dasharray:none;stroke-opacity:1"
         transform="matrix(-1,0,0,1,93.654246,0)" />
      <line
         id="_41043528"
         class="fil2 str5"
         x1="18.779833"
         y1="87.310593"
         x2="15.761333"
         y2="85.376389"
         style="fill:#d38d5f;stroke:#000000;stroke-width:0.28222224000000001;stroke-miterlimit:4;stroke-dasharray:none;stroke-opacity:1" />
      <path
         style="fill:#d38d5f;fill-rule:evenodd;stroke:#000000;stroke-width:0.28222224000000001;stroke-linecap:butt;stroke-linejoin:miter;stroke-miterlimit:4;stroke-dasharray:none;stroke-opacity:1"
         d="M 53.634049,107.49251 C 59.952683,108.33737 66.271316,108.39179 72.58995,107.15799"
         id="path2743"
         sodipodi:nodetypes="cc" />
      <path
         style="fill:#d38d5f;fill-rule:evenodd;stroke:#000000;stroke-width:0.28222224000000001;stroke-linecap:butt;stroke-linejoin:miter;stroke-miterlimit:4;stroke-dasharray:none;stroke-opacity:1"
         d="M 78.109463,95.672946 C 75.105962,98.32688 77.144817,100.61074 80.506827,100.46768"
         id="path2745"
         sodipodi:nodetypes="cc" />
      <path
         style="fill:#d38d5f;fill-rule:evenodd;stroke:#000000;stroke-width:0.28222224000000001;stroke-linecap:butt;stroke-linejoin:miter;stroke-miterlimit:4;stroke-dasharray:none;stroke-opacity:1"
         d="M 35.570191,96.56499 C 39.26148,98.632096 41.074935,101.01217 43.041046,103.36681"
         id="path2747"
         sodipodi:nodetypes="cc" />
    </g>
  </g>
  <path
     id="path8347"
     style="fill:#000000;fill-opacity:1;stroke:none;stroke-width:1;stroke-miterlimit:4;stroke-dasharray:none;stroke-dashoffset:0;stroke-opacity:1"
     d="M 311.48585,117.65335 L 323.88262,139.17986 L 348.18534,134.13083 L 331.41331,152.55812 L 343.69903,173.98381 L 320.93658,163.84599 L 304.22685,182.1368 L 306.9309,157.444 L 284.31801,147.32266 L 308.75166,142.19949 L 311.48585,117.65335 z" />
  <path
     d="M 213.12569,164.08173 L 231.31436,181.00045 L 253.05086,169.01549 L 242.45228,191.56623 L 260.50512,208.42132 L 235.76618,205.43972 L 225.18696,227.84171 L 220.49601,203.44823 L 195.90485,200.43833 L 217.74463,188.34394 L 213.12569,164.08173 z"
     style="fill:#000000;fill-opacity:1;stroke:none;stroke-width:1;stroke-miterlimit:4;stroke-dasharray:none;stroke-dashoffset:0;stroke-opacity:1"
     id="path4651" />
  <path
     id="path4653"
     style="fill:#000000;fill-opacity:1;stroke:none;stroke-width:1;stroke-miterlimit:4;stroke-dasharray:none;stroke-dashoffset:0;stroke-opacity:1"
     d="M 136.42755,238.83433 L 159.58279,247.82911 L 175.34767,228.65667 L 173.83799,253.52806 L 196.84349,262.51395 L 172.75524,268.89053 L 171.20853,293.61656 L 157.83083,272.68611 L 133.86942,278.98176 L 149.68981,259.66944 L 136.42755,238.83433 z" />
  <path
     d="M 92.894771,331.80239 L 117.52008,335.06815 L 128.3056,312.71225 L 132.71847,337.23553 L 157.19619,340.52806 L 135.29821,352.41851 L 139.64074,376.80931 L 121.69415,359.63473 L 99.900277,371.41657 L 110.70666,348.91163 L 92.894771,331.80239 z"
     style="fill:#000000;fill-opacity:1;stroke:none;stroke-width:1;stroke-miterlimit:4;stroke-dasharray:none;stroke-dashoffset:0;stroke-opacity:1"
     id="path4655" />
  <path
     id="path4659"
     style="fill:#000000;fill-opacity:1;stroke:none;stroke-width:1;stroke-miterlimit:4;stroke-dasharray:none;stroke-dashoffset:0;stroke-opacity:1"
     d="M 537.40847,166.20311 L 517.37254,180.88753 L 497.18039,166.45176 L 505.0795,190.08372 L 485.18589,204.72078 L 510.10372,204.64171 L 518.00095,228.12367 L 525.50192,204.44284 L 550.27629,204.31845 L 529.99431,189.76196 L 537.40847,166.20311 z" />
  <path
     d="M 610.39728,238.83433 L 587.24204,247.82911 L 571.47716,228.65667 L 572.98684,253.52806 L 549.98134,262.51395 L 574.06959,268.89053 L 575.6163,293.61656 L 588.994,272.68611 L 612.95541,278.98176 L 597.13502,259.66944 L 610.39728,238.83433 z"
     style="fill:#000000;fill-opacity:1;stroke:none;stroke-width:1;stroke-miterlimit:4;stroke-dasharray:none;stroke-dashoffset:0;stroke-opacity:1"
     id="path4661" />
  <path
     id="path4663"
     style="fill:#000000;fill-opacity:1;stroke:none;stroke-width:1;stroke-miterlimit:4;stroke-dasharray:none;stroke-dashoffset:0;stroke-opacity:1"
     d="M 653.93006,331.80239 L 629.30475,335.06815 L 618.51923,312.71225 L 614.10636,337.23553 L 589.62864,340.52806 L 611.52662,352.41851 L 607.18409,376.80931 L 625.13068,359.63473 L 646.92455,371.41657 L 636.11817,348.91163 L 653.93006,331.80239 z" />
  <path
     d="M 437.0175,117.65335 L 424.62073,139.17986 L 400.31801,134.13083 L 417.09004,152.55812 L 404.80432,173.98381 L 427.56677,163.84599 L 444.2765,182.1368 L 441.57245,157.444 L 464.18534,147.32266 L 439.75169,142.19949 L 437.0175,117.65335 z"
     style="fill:#000000;fill-opacity:1;stroke:none;stroke-width:1;stroke-miterlimit:4;stroke-dasharray:none;stroke-dashoffset:0;stroke-opacity:1"
     id="path3223" />
</svg>
