<?xml version="1.0" encoding="UTF-8" standalone="no"?>
<svg
   xmlns:dc="http://purl.org/dc/elements/1.1/"
   xmlns:cc="http://web.resource.org/cc/"
   xmlns:rdf="http://www.w3.org/1999/02/22-rdf-syntax-ns#"
   xmlns:svg="http://www.w3.org/2000/svg"
   xmlns="http://www.w3.org/2000/svg"
   xmlns:sodipodi="http://sodipodi.sourceforge.net/DTD/sodipodi-0.dtd"
   xmlns:inkscape="http://www.inkscape.org/namespaces/inkscape"
   version="1.0"
   width="581.25"
   height="387.5"
   viewBox="0 0 468 310"
   preserveAspectRatio="xMidYMid meet"
   id="svg2"
   sodipodi:version="0.32"
   inkscape:version="0.44"
   sodipodi:docname="jeju.svg"
   sodipodi:docbase="C:\flags">
  <defs
     id="defs13" />
  <sodipodi:namedview
     inkscape:window-height="579"
     inkscape:window-width="847"
     inkscape:pageshadow="2"
     inkscape:pageopacity="0.0"
     guidetolerance="10.0"
     gridtolerance="10.0"
     objecttolerance="10.0"
     borderopacity="1.0"
     bordercolor="#666666"
     pagecolor="#ffffff"
     id="base"
     width="581.25px"
     inkscape:zoom="0.97290323"
     inkscape:cx="292.5"
     inkscape:cy="193.75"
     inkscape:window-x="29"
     inkscape:window-y="337"
     inkscape:current-layer="svg2" />
  <metadata
     id="metadata4">
Created by potrace 1.7, written by Peter Selinger 2001-2005
<rdf:RDF>
  <cc:Work
     rdf:about="">
    <dc:format>image/svg+xml</dc:format>
    <dc:type
       rdf:resource="http://purl.org/dc/dcmitype/StillImage" />
  </cc:Work>
</rdf:RDF>
</metadata>
  <rect
     style="fill:white;fill-opacity:1;stroke:none;stroke-width:5.36600018;stroke-miterlimit:4;stroke-dasharray:none;stroke-opacity:1"
     id="rect1879"
     width="468"
     height="312"
     x="1.110223e-016"
     y="-1" />
  <path
     style="fill:#ff4a31;stroke:none;fill-opacity:1"
     id="path10"
     d="M 81.4125,40.16875 C 57.76875,49.1875 39.4875,73.5625 39,96.9625 C 39,109.88125 45.825,128.1625 55.0875,138.8875 C 92.625,183.00625 163.3125,156.925 163.3125,98.9125 C 163.3125,64.54375 136.0125,37 102.375,37.24375 C 95.0625,37.24375 85.55625,38.70625 81.4125,40.16875 z M 142.59375,68.44375 C 146.49375,76.24375 149.6625,96.71875 147.46875,100.13125 C 146.49375,102.08125 144.3,101.59375 140.64375,99.15625 C 128.7,90.625 109.2,98.66875 105.05625,114.025 C 101.4,127.43125 106.7625,138.15625 119.925,144.25 C 130.1625,148.88125 130.1625,148.88125 123.58125,150.5875 C 119.68125,151.31875 112.36875,151.31875 107.00625,150.5875 C 95.79375,148.88125 78,140.35 78,137.18125 C 78,135.9625 81.4125,131.575 85.3125,127.675 C 91.1625,121.825 92.625,118.16875 92.625,110.125 C 92.625,89.65 68.98125,77.95 52.65,90.86875 C 49.2375,93.55 46.3125,94.76875 46.3125,93.55 C 46.3125,88.91875 57.76875,74.5375 67.7625,66.98125 C 79.21875,58.20625 84.3375,56.74375 81.9,62.8375 C 81.16875,64.7875 81.9,70.15 83.85,74.5375 C 94.575,100.375 131.625,93.79375 131.625,66.25 C 131.625,57.23125 132.1125,56.25625 135.525,59.18125 C 137.475,60.8875 140.64375,65.03125 142.59375,68.44375 z " />
  <path
     style="fill:#07f;fill-opacity:1;stroke:none;stroke-width:5.36600018;stroke-miterlimit:4;stroke-opacity:1"
     d="M 468,-1 L 468,311 L 0,311 L 468,-1 z "
     id="rect2830"
     sodipodi:nodetypes="cccc" />
</svg>
