<?xml version="1.0" encoding="UTF-8"?>
<svg xmlns="http://www.w3.org/2000/svg" xmlns:xlink="http://www.w3.org/1999/xlink" width="600" height="400">
<rect width="600" height="400" fill="#00f"/>
<rect width="600" height="194" fill="#fff"/>
<g>
<path fill="#fff" stroke="#000" stroke-width="1.84" d="M201.016,76.9858v150.863c0,52.402,44.638,97.948,98.984,97.948s98.984-45.546,98.984-97.948v-150.863l-98.984,0.5177-98.984-0.5177z"/>
<g id="beagle">
<path fill="#bb080f" d="m282.172,81.9877-0.62041,1.11246c-0.11106,0.334399-0.30903,0.813418-0.56692,1.34779l-0.80226,1.658-0.56693-0.812953c-0.3133-0.447302-0.56693-1.15058-0.56693-1.56172,0-0.570669-0.15749-0.709867-0.66319-0.577625-1.21042,0.316532-1.84977,1.34994-1.63661,2.66349,0.13863,0.854288,0.0756,1.20874-0.23532,1.20873-0.50633,0-1.36999-0.92462-1.67939-1.79705-0.29185-0.822965-0.7485-0.747129-1.17664,0.192541-0.25959,0.569724-0.23646,1.13749,0.0749,2.04308,0.23693,0.689165,0.347,1.33239,0.24603,1.43336-0.40368,0.403683-1.47179,0.148388-2.01099-0.481354-0.31413-0.366883-0.70106-0.587646-0.85574-0.49205-0.52647,0.325383-0.27815,2.35048,0.42787,3.50853,0.91757,1.50508,0.64476,2.25119-0.71668,1.9789-0.56189-0.112379-1.01619-0.07284-1.01619,0.09627,0,0.537768,1.75454,2.41747,2.25701,2.41746,0.26566,0,0.48135,0.301272,0.48135,0.663199,0,0.450837-0.38332,0.783032-1.21942,1.05898-1.19037,0.392857-1.20899,0.418183-0.60972,1.08037,0.4714,0.520896,0.9536,0.64543,2.07517,0.556231,0.80396-0.06394,1.46545-0.07596,1.46545-0.03209s-0.30876,0.581636-0.68459,1.19803c-0.37582,0.61641-0.68388,1.26052-0.68459,1.42267-0.001,0.27062,1.72401,0.0814,3.16624-0.34229,0.37002-0.1087,0.59901,0.0127,0.59901,0.3102,0,0.5399-1.39687,1.27292-2.41746,1.27291-0.97221,0-0.82216,0.47462,0.51344,1.6473,0.99524,0.87383,1.10058,1.09882,0.6846,1.44406-0.47974,0.39815-1.4122,0.34132-2.6314-0.17115-0.91898-0.38628-0.76174,0.73729,0.2995,2.12866,0.72995,0.957,0.81136,1.24022,0.42787,1.48684-0.51053,0.32833-2.28957,0.0822-2.89881-0.40647-0.91835-0.73656-1.12034,0.97669-0.26742,2.2784,0.72887,1.1124,0.37433,1.42323-0.9948,0.86644-2.03724-0.82849-2.64209-0.86133-2.64209-0.14975,0,0.35658,0.25205,1.00978,0.55623,1.44406,0.7934,1.13275,0.16765,1.62578-1.17665,0.93061-0.57448-0.29707-1.14504-0.69823-1.26221-0.88783-0.11718-0.1896-0.4347-0.34229-0.70599-0.34229-0.67261,0-0.62454,1.34511,0.0749,2.11795,0.77157,0.85258,0.0747,0.78707-1.04828-0.0963-1.12908-0.88813-1.91538-0.63496-1.92541,0.62041l-0.0107,0.95201-0.6632-0.85574c-0.97568-1.24733-0.85639-1.52097,0.85574-1.97889,1.80291-0.48221,1.92629-0.8038,0.51344-1.3371-1.25074-0.4721-1.3196-0.98467-0.17114-1.27291,1.18243-0.29677,1.11791-1.22343-0.0856-1.23012-0.51772-0.003-1.16143-0.14478-1.42266-0.31021-0.38844-0.24599-0.34267-0.43779,0.24602-1.06967,0.86174-0.92498,0.71767-1.32736-0.40648-1.11247-0.95279,0.18214-2.38294-0.47133-2.08586-0.95201,0.11051-0.17882,0.55611-0.3209,0.9948-0.3209,1.00629,0,2.43639-1.12545,2.10726-1.65799-0.1352-0.21876-0.53258-0.39578-0.87714-0.39578s-0.97137-0.283-1.40127-0.63111l-0.78086-0.63111,1.47615,0.0321c1.71011,0.0392,2.2329-0.64385,0.88783-1.15525-0.48596-0.18476-0.87714-0.40861-0.87714-0.49205,0-0.0834,0.53912-0.48059,1.19804-0.88783,0.65892-0.40723,1.19803-0.88565,1.19803-1.06967,0-0.184018-0.13893-0.255606-0.3102-0.149754-0.17127,0.105851-0.56144,0.09564-0.86644-0.02139-0.53257-0.204364-0.5232-0.550754,0.0749-2.13935,0.14082-0.374034,0.0362-0.391176-0.53484-0.08557-1.59654,0.854445-1.88388,0.563905-1.73287-1.80775l0.13906-2.19283-0.86644,0.684591c-0.83074,0.655041-0.87272,0.656674-0.96271,0.05348-0.1669-1.11884-0.86151-3.19934-1.06967-3.19833-0.11106,0.000548-0.5113,0.463185-0.88783,1.02689-0.8809,1.31882-1.20222,1.29637-1.20873-0.08557-0.0114-2.41835-0.77571-2.3461-1.81845,0.171148-0.63123,1.52386-1.32243,1.72375-1.03758,0.299509,0.22717-1.13587-0.27868-1.6454-0.89853-0.898527-0.48201,0.580791-1.18946,0.70704-0.84504,0.149755,0.12461-0.20163,0.11398-1.08732-0.0214-1.9682-0.20356-1.32466-0.29376-1.47446-0.52415-0.866437-0.6635,1.75106-1.40055,0.606805-1.35848-2.10726l0.0214-1.02689-0.85574,1.02689c-0.46702,0.564788-0.84896,1.1527-0.85574,1.305-0.0273,0.614972-0.80907-0.271095-1.40127-1.59382l-0.63111-1.41197-0.6525,1.46545-0.6632,1.47615-1.03758-1.04828c-0.57563-0.575625-1.16011-1.04828-1.29431-1.04828s-0.14821,0.693153-0.0321,1.54033c0.23076,1.68355-0.0225,1.90647-0.9734,0.855739-1.18476-1.30914-1.60233-0.60444-0.68459,1.15525,0.28123,0.539243,0.51344,1.00706,0.51344,1.03758s-0.62977-0.012-1.40127-0.08557l-1.40128-0.128361,0.58832,0.898526c0.32418,0.494751,1.34374,1.49994,2.26771,2.23562,1.68955,1.34524,1.7256,2.00275,0.0963,1.59381l-0.82364-0.213934,0.60971,1.12316c0.47296,0.85512,0.95884,1.18672,2.05377,1.43336,1.64628,0.37083,1.80746,0.746277,0.53484,1.23013-0.72503,0.275657-0.81173,0.436276-0.48135,0.834346,0.40568,0.488815,2.39965,1.27891,2.963,1.17664,0.7019-0.12744,0.86824,0.0665,0.47065,0.54553-0.23436,0.28239-0.7326,0.51345-1.10176,0.51344-1.1183,0-0.51409,0.80066,1.24082,1.6473,1.19708,0.57752,1.55567,0.90458,1.28361,1.17664s-0.62429,0.25763-1.28361-0.0428c-0.50009-0.22786-0.99592-0.33047-1.09107-0.23533-0.28555,0.28556,0.63622,2.18621,1.15525,2.38537,0.26516,0.10175,0.48135,0.35053,0.48135,0.55623,0,0.2493-0.51362,0.29303-1.54033,0.13906-0.84718-0.12704-1.54033-0.14104-1.54033-0.0321,0,0.10896,0.46626,0.72917,1.03759,1.37988,0.98267,1.1192,0.99962,1.19604,0.35299,1.40127-0.37596,0.11933-1.00305,0.0469-1.39058-0.16045-1.39581-0.74701-1.82446,0.36155-0.69529,1.79706,0.59502,0.75644,0.61634,0.91413,0.17115,1.28361-0.79037,0.65594-0.59867,1.02689,0.52414,1.02688,1.34355,0,1.31956,0.6389-0.0321,0.90923-0.82719,0.16543-1.01172,0.35178-0.87713,0.86643,0.10633,0.40661,0.0132,0.60861-0.23533,0.52414-0.24661-0.0838-0.34886-0.68605-0.27811-1.56172,0.12866-1.59271-0.0777-1.70643-1.3157-0.73808-0.47066,0.36816-1.12934,0.66971-1.45476,0.6739-0.5054,0.006-0.53234-0.11205-0.20324-0.83435,0.29563-0.64884,0.28485-0.9722-0.0535-1.37988-0.39567-0.47674-0.5271-0.47834-1.24083-0.0107-0.43746,0.28663-1.10777,0.52414-1.49754,0.52414-0.60416,0-0.65671-0.0971-0.3423-0.6846,0.40841-0.76311-0.0609-2.10956-0.49205-1.41197-0.27351,0.44256-2.54614,0.51018-3.19832,0.0963-0.33301-0.21134-0.2724-0.41968,0.25672-0.89852,0.38097-0.34478,0.69529-0.98523,0.69529-1.42267,0-0.72643-0.0764-0.76645-0.86644-0.40648-0.65595,0.29888-0.95778,0.30444-1.26221,0-0.22081-0.2208-0.69268-0.40647-1.04828-0.40647-0.58197,0-0.56231-0.10035,0.23532-1.04828,1.17654-1.39823,1.12401-1.76838-0.22463-1.51894-1.18565,0.21929-2.95016-0.70815-2.05377-1.08037,0.7321-0.304,1.49275-1.20569,1.35848-1.61521-0.07-0.21348-0.58358-0.43902-1.13385-0.50275-1.07279-0.12423-1.85054-0.60838-1.85054-1.15524,0-0.19271,0.37863-0.24547,0.88783-0.11767,1.06159,0.26644,3.90431-0.10762,3.90431-0.51344,0-0.156614-0.41818-0.481782-0.93061-0.727379-1.19265-0.57162-0.92615-1.12676,0.48135-1.00549,0.73607,0.06342,1.3177-0.141063,1.79705-0.620411,0.95897-0.958962,0.89064-1.26593-0.3209-1.50824-1.16449-0.232898-1.37909-1.09699-0.35299-1.42267,0.89744-0.284834,2.06447-1.80167,2.06447-2.68488,0-0.549802-0.0977-0.608287-0.41717-0.288812-0.4658,0.465797-1.84749,0.548677-2.10726,0.128361-0.0945-0.152941,0.11679-0.730565,0.48135-1.28361,0.36907-0.559873,0.67264-1.59835,0.6739-2.34259,0.002-1.24393-0.0416-1.29922-0.59902-0.812952-0.32946,0.287381-0.90708,0.683246-1.28361,0.877133-0.63123,0.325051-0.6841,0.240575-0.68459-1.06968-0.00062-1.63429-1.61218-4.42854-1.80775-3.13415-0.24451,1.61831-0.45562,2.22493-0.77017,2.22492-0.18467,0-0.3316-0.249003-0.3316-0.556231,0-0.689123-2.33567-2.94289-2.77045-2.67419-0.18972,0.117254-0.17427,0.448774,0.0321,0.834346,0.41288,0.771484,0.41512,1.06024,0.0428,1.6473-0.21288,0.335645-0.58374,0.143638-1.49755-0.770166-0.6695-0.669506-1.54039-1.21942-1.93611-1.21943h-0.71668l0.68459,1.28361c1.34512,2.50969,0.72328,2.86165-0.9734,0.556231-0.62874-0.85433-1.20938-1.4862-1.28361-1.41197-0.0742,0.07423-0.15456,1.15937-0.18185,2.41746-0.0273,1.2581-0.15763,2.28911-0.28881,2.2891-0.39741,0-1.72217-1.55713-1.72217-2.02168,0-0.238885-0.19254-0.366198-0.42787-0.288812-0.68129,0.224036-0.72682,2.82882-0.0642,3.84013,0.31827,0.485742,0.50986,0.966294,0.41717,1.05898-0.35875,0.358743-1.34291-0.321943-1.82914-1.26222-0.28027-0.541974-0.66162-0.984097-0.84505-0.984101-0.52707,0-0.37954,3.49191,0.19255,4.5889,0.2846,0.545732,0.43391,1.06363,0.34229,1.15525-0.29795,0.297951-1.97645-1.00488-2.15004-1.66869-0.24718-0.945212-0.77017-0.434421-0.77017,0.748772,0,1.32892,0.84775,3.34725,1.51894,3.6048,0.29089,0.111626,0.53483,0.334624,0.53483,0.502746,0,0.419991-1.96268,0.39222-2.22492-0.03209-0.11635-0.188262-0.36639-0.342292-0.55623-0.342296-0.62969,0,0.0934,1.51517,1.34779,2.82394,1.35811,1.41696,0.83325,1.82204-0.74877,0.57762-1.04612-0.82287-1.08061-0.69087-0.39578,1.61521,0.34817,1.17241,0.78663,1.85395,1.37988,2.17144,1.07419,0.57489,0.43899,1.11222-0.77017,0.6525-1.14429-0.43506-1.19393-0.40835-0.93061,0.45996,0.29706,0.97959,1.50449,2.3105,2.09656,2.3105,0.24958,0,0.45996,0.17203,0.45996,0.38508,0,0.25434-0.47021,0.32382-1.36918,0.20324-0.75306-0.10101-1.36919-0.0594-1.36919,0.0856,0,0.58099,1.40782,2.00185,2.38538,2.40676,1.55337,0.64343,1.28479,1.1428-0.50275,0.94132-1.32067-0.14886-1.54033-0.0803-1.54033,0.44926,0,0.82408,1.50123,1.9654,2.9416,2.23562,0.63982,0.12003,1.16595,0.33709,1.16595,0.48135,0,0.62241-1.08619,1.10275-2.05378,0.90923-1.30353-0.26071-1.39196,0.46926-0.19254,1.66869,0.59409,0.59409,1.21867,0.84504,2.12865,0.84504,1.21124,0,1.25366,0.0299,0.70599,0.57762-0.3269,0.3269-1.11059,0.58833-1.78636,0.58833-1.53651,0-1.54311,0.59105-0.0321,1.74356,0.86441,0.65932,1.39353,0.82891,2.05377,0.6632,0.54384-0.13649,0.88783-0.0856,0.88783,0.13906,0,0.57351-1.35605,1.16042-2.2784,0.9841-0.62616-0.1197-0.81655-0.0224-0.73808,0.38508,0.14417,0.74858,2.24865,2.10726,3.26251,2.10726,1.33141,0,0.71327,0.84277-0.70599,0.96271-0.69143,0.0584-1.25151,0.21811-1.25151,0.35299,0,0.13489,0.60217,0.85652,1.33709,1.60451,1.19486,1.21614,1.46788,1.87314,0.78086,1.87193-0.13009-0.00023-0.68763-0.3907-1.24082-0.86643-1.50676-1.29581-3.65384-1.63815-2.68488-0.42787,0.19204,0.23988,0.45846,0.78513,0.58832,1.20873,0.21425,0.69888,0.12399,0.77016-0.9841,0.77016-0.65482,0-1.18642-0.0401-1.21943-0.0856h-0.0107l-0.79156,0.0856c0.0141,0.1074,0.0295,0.21133,0.0428,0.31021l1.11246,0.75947c0.0478-0.0532,0.18141,0.0458,0.43856,0.25672,0.31504,0.25838,0.57763,0.67169,0.57763,0.91992s-0.15404,0.54684-0.3423,0.6632c-0.0753,0.0465-0.14598,0.0628-0.20324,0.0642l0.0107,0.0749-0.71668,0.86643,1.21943,0.93062,0.0749,0.22463c0.0901-0.38689,0.39677-0.31991,0.91992,0.20324,0.46437,0.46437,0.48438,0.67075,0.12836,1.24082-0.35823,0.57362-0.33586,0.7245,0.11766,0.89853,0.29867,0.11461,0.92307,0.0312,1.39058-0.18185,1.14403-0.52125,1.16594-0.5159,1.16594,0.49205,0,1.2,1.02967,0.99098,1.6687-0.34229l0.48135-1.0055,0.58832,0.72738c0.66627,0.8228,1.3431,0.46832,1.41197-0.74877,0.0346-0.61234,0.0517-0.63024,0.19254-0.0856,0.0949,0.36698,0.36822,0.54766,0.6525,0.43856,0.77325-0.29672,0.55153,0.42506-0.37438,1.23013-0.66646,0.57947-0.75742,0.83743-0.44927,1.20873,0.31101,0.37474,0.23305,0.50995-0.35299,0.6632-0.82624,0.21607-0.90597,0.53495-0.38508,1.50824,0.36588,0.68365-0.1171,0.9795-0.52414,0.3209-0.27564-0.446-2.22492-0.446-2.22492,0,0,0.18826,0.15403,0.34229,0.34229,0.3423,0.64567,0,0.34238,0.70665-0.42787,0.99479-0.49232,0.18418-0.86128,0.31986-1.16594,0.41718v0.0107l-1.43337,0.6418,1.50824,0.50275,0.0214,0.0963c0.25289,0.17985,0.47065,0.4227,0.47065,0.60971,0,0.30301-0.0937,0.5054-0.22463,0.59902l0.0214,0.12836-0.57763,0.6525,0.72738,0.21394c0.0249-0.005,0.0476-0.0189,0.0749-0.0214,0.0716-0.006,0.15296-0.005,0.23533,0.0107,0.3967,0.0751,0.63417,0.49547,0.70598,1.24082,0.0945,0.98085,0.20446,1.09796,0.85574,0.89852,0.41102-0.12587,0.93305-0.37885,1.15525-0.55623,0.44539-0.35554,1.13385,0.62849,1.13385,1.61521,0,0.82145,0.64562,0.46745,1.30501-0.70598,0.31459-0.55984,0.62249-1.08318,0.67389-1.16595,0.0514-0.0828,0.32098,0.18679,0.60972,0.59902,0.7646,1.09161,1.14346,0.92497,1.39057-0.62041,0.24297-1.51943,0.44996-1.61851,1.67939-0.81295,1.09767,0.71921,1.06372,1.03307-0.19254,1.79705-0.90247,0.54883-0.96866,0.68117-0.51344,1.05898,0.83999,0.69713,0.60811,1.12888-0.52414,0.9627-0.97076-0.14247-1.04069-0.0949-0.84505,0.68459,0.17856,0.71143,0.11363,0.80453-0.40647,0.59902-1.11828-0.44187-2.83464-0.62387-2.83464-0.29951,0,0.17524,0.1837,0.50461,0.40648,0.72738,0.22278,0.22278,0.3383,0.45255,0.25672,0.50275-0.0816,0.0502-0.55314,0.44194-1.04828,0.87713l-0.90923,0.79156-0.0321-0.0535-0.52414,0.49205,1.29431-0.21394,0.0535,0.0856c0.40144,0.0658,0.84504,0.51061,0.84504,1.00549,0,0.15469-0.007,0.29065-0.0214,0.40648l0.12836,0.22463-0.21394,1.2943,1.02689,0.0642c0.37424-0.33474,1.47615,0.72092,1.47615,1.47616,0,0.91565,0.49148,1.03905,1.13386,0.28881,0.68594-0.80113,1.03905-0.8311,1.60451-0.14976,0.63389,0.76379,0.94698,0.6296,1.19803-0.51344,0.24238-1.10353,0.49167-1.25191,1.10177-0.64181,0.28764,0.28765,0.44709,0.0681,0.62041-0.85573,0.12821-0.68345,0.31902-1.24083,0.41717-1.24083,0.30219,0,1.45126,1.45255,1.46546,1.85054,0.007,0.20652,0.23681-0.12623,0.50274-0.73808,0.69795-1.60579,1.34276-1.45104,1.06968,0.25673-0.17297,1.08171-0.11334,1.36918,0.28881,1.36918,0.39989,0,0.43443,0.18071,0.18185,0.84504-0.25233,0.66368-0.19305,0.92662,0.26741,1.20873,0.44575,0.27309,0.27209,0.30391-0.70598,0.13906-1.93248-0.32571-3.1647,0.92603-1.52964,1.55103,0.76232,0.2914,0.75344,0.29668-0.16045,0.53484-0.50781,0.13233-1.16074,0.59956-1.45475,1.04828-0.51079,0.77956-0.49259,0.82804,0.34229,1.03758,0.48056,0.12062,0.8186,0.31984,0.74877,0.43857-0.0698,0.11873-0.34767,0.71454-0.60971,1.32639-0.16474,0.38465-0.33499,0.70925-0.47066,0.90923l0.10697-0.0749-0.21393,1.14455,0.90922-0.34229c0.0423-0.0449,0.0878-0.0877,0.14975-0.13906,0.10951-0.0909,0.19314-0.15304,0.26742-0.17115,0.0248-0.006,0.0531-0.003,0.0749,0,0.14495,0.0193,0.22862,0.23631,0.3209,0.71668,0.085,0.44253,0.12307,0.72637,0.10697,0.87714-0.00031,0.003,0.00034,0.008,0,0.0107l0.10697,0.20323,0.71668,1.35849,0.48135-0.58832c0.0245-0.0709,0.0674-0.12888,0.12836-0.16045h0.0107l0.0214-0.0321,0.0107,0.0214c0.025-0.008,0.0456-0.0197,0.0749-0.0214,0.16704-0.01,0.39952,0.094,0.67389,0.3423,0.35783,0.32384,0.6525,0.79507,0.6525,1.04828,0,0.15802-0.0333,0.26986-0.0856,0.3423l0.0428,0.0535,0.42787,1.15525,0.17114-0.55623c-0.004-0.0801,0.0265-0.16306,0.0749-0.24603l0.0428-0.12836,0.0214,0.0214c0.0513-0.0673,0.11805-0.14232,0.19254-0.22464,0.75743-0.83695,1.0408-0.81084,1.28361,0.11767,0.19747,0.75511,0.20887,0.75334,1.24082-0.23533,0.45141-0.43248,0.71738-0.65974,0.86644-0.69529,0.0213-0.005,0.0366-0.002,0.0535,0,0.0811,0.0121,0.11767,0.11335,0.11767,0.28881,0,0.32397-0.56728,0.92268-1.25152,1.3264-1.13257,0.66823-1.17879,0.74985-0.54553,0.9841,0.38259,0.14153,0.79276,0.42127,0.90922,0.60971,0.22257,0.36012,0.17112,0.51008-0.0535,0.49206l0.0428,0.0428,0.42787,0.93062,0.94131,0.21393-0.14975,1.0055,1.43336-0.28881-0.0642,0.94131,0.38509-0.24603c0.0102-0.1166,0.12552-0.25882,0.3102-0.48135,0.33924-0.40876,0.5449-0.42891,0.91992-0.11766,0.36549,0.30332,0.5877,0.30012,0.88783,0,0.2456-0.2456,0.45798-0.37222,0.59902-0.39578,0.23506-0.0393,0.26446,0.20886-0.11766,0.6311-0.31158,0.34429-0.56693,0.80638-0.56693,1.02689,0,0.32529-0.13628,0.427-0.48136,0.3209l0.50275,0.40648v0.71668l0.93062,0.14976,0.43856,0.71668,1.06968,0.36369,0.72738,0.6418,0.29951-0.43856c-0.13985-0.18428-0.0399-0.34813,0.0856-0.6739,0.22419-0.58195,0.25878-0.57865,0.57762-0.0107,0.48867,0.87045,0.8995,0.74174,1.6687-0.51344l0.68459-1.11246-0.0856,1.71148c-0.0701,1.3683,0.0131,1.69159,0.42787,1.6259,0.28535-0.0452,0.71805,0.22438,0.95201,0.59902,0.3004,0.48102,0.35144,0.67834-0.0321,0.57762l0.44927,0.53484,1.2943,0.86644,1.6473,0.27811,0.42787,0.43857-0.0535-0.72738c-0.17492-0.0479-0.23747-0.21041-0.23533-0.47066,0.009-1.11523,0.54765-1.68454,1.13385-1.19803,0.42691,0.3543,0.5458,0.25501,0.73808-0.62041,0.15839-0.72113,0.43342-1.04829,0.88783-1.04829,0.73813,0,0.84683-0.36189,0.27811-0.93061-0.20944-0.20944-0.30456-0.58254-0.21393-0.83435,0.0264-0.0734,0.0569-0.12264,0.0963-0.13906,0.0147-0.006,0.0263-0.0125,0.0428-0.0107,0.11562,0.0123,0.27751,0.22153,0.45996,0.60972,0.49999,1.06387,1.36801,1.51687,1.74357,0.90922,0.18114-0.29309,0.48024-0.31517,0.99479-0.0856,0.18513,0.0826,0.29404,0.15935,0.31021,0.25672l0.86644,0.11766,0.3209-0.9841c-0.0426-0.0636-0.009-0.20251,0.0856-0.44926,0.10837-0.28239,0.41164-0.51345,0.6739-0.51344,0.22417,0,0.35569,0.0719,0.41717,0.17115l0.6525,0.19254-0.12836-0.87714c-0.11891-0.16185-0.27612-0.41779-0.41717-0.72738-0.40604-0.89115-0.40034-0.8888,0.80225-0.66319,1.06365,0.19954,1.20873,0.13458,1.20873-0.48136,0-0.51857,0.22188-0.69529,0.85574-0.69528,0.31772,0,0.53773,0.0259,0.6632,0.0856l0.97341,0.0535,0.12836-1.09107c-0.003-0.004-0.008-0.006-0.0107-0.0107-0.0971-0.15713,0.2798-0.54956,0.83435-0.87714,1.23641-0.73036,1.25878-1.01457,0.12836-1.52963-0.63769-0.29055-0.82192-0.5819-0.6739-1.04828,0.15386-0.48476-0.009-0.69161-0.6632-0.85574-1.00823-0.25305-1.16996-0.88784-0.22463-0.88783,0.35487,0,0.88472,0.36742,1.17664,0.81295,0.74911,1.14328,1.94665,1.41169,1.94681,0.43857,0.00011-0.6541,0.20469-0.74564,1.79705-0.80226l1.3157-0.0428,0.0642-0.0642,0.79156-0.0749-0.21393-0.62041c-0.0431-0.0151-0.0776-0.0475-0.0963-0.0963-0.16328-0.4255,0.0804-0.69925,0.94131-1.05897,1.38497-0.57868,2.21964-1.84944,1.50824-2.28911-0.37917-0.23434-0.35577-0.45296,0.0963-1.24082,0.83341-1.45254,1.08171-3.17693,0.45996-3.17693-0.35401,0-0.50274-0.37418-0.50274-1.26222,0-0.98505-0.0977-1.17521-0.41718-0.85574-0.65479,0.6548-1.29931,0.47288-1.305-0.36369-0.003-0.42359-0.14296-1.00213-0.3209-1.28361-0.27739-0.43877-0.39585-0.41391-0.82365,0.17115-0.639,0.87388-1.04745,0.46379-1.0055-1.01619,0.0245-0.86455-0.0827-1.10995-0.43856-0.9734-0.33813,0.12975-0.48136-0.09-0.48136-0.74877v-0.94132l1.11247,0.84505c1.86807,1.40222,2.06718,1.46992,1.80775,0.6525-0.33739-1.06302,0.3383-0.89286,1.18733,0.29951,0.90251,1.26744,1.36919,1.30524,1.36919,0.11766v-0.89853l0.83434,0.89853c1.06234,1.14628,2.39882,1.25827,2.05378,0.17115-0.19847-0.62531-0.13574-0.69117,0.40647-0.44927,0.76142,0.3397,2.21468,0.3562,3.05927,0.0321,0.46357-0.17789,0.50775-0.3266,0.20324-0.63111-0.57868-0.57868-0.49175-0.95201,0.22463-0.95201,0.68552,0,2.11796-1.34404,2.11796-1.98959,0-0.2232-0.23691-0.40648-0.52414-0.40648-0.46812,0-0.46812-0.10026,0-1.00549,0.58044-1.12246,0.70215-2.75977,0.20324-2.75976-0.17716,0-0.41849,0.15402-0.53484,0.34229-0.37568,0.60787-0.77823,0.36625-1.14455-0.68459-0.40536-1.16282-1.08037-1.37642-1.08037-0.3423,0,0.84407-0.52765,0.89751-0.84505,0.0856-0.20036-0.51255-0.30911-0.45695-0.74877,0.37438-0.28261,0.53437-0.594,0.89284-0.68459,0.80226-0.0906-0.0906,0.15782-0.75276,0.54553-1.47615,0.92918-1.73364,0.9381-2.64424,0.0214-2.35328-0.86982,0.27606-0.8593,0.0435,0.0428-1.17665,0.79073-1.06951,0.63326-1.73287-0.40647-1.73287-0.73357,0-0.7628-0.0452-0.45996-0.83435,0.0405-0.10567,0.10471-0.16587,0.19254-0.17114,0.26348-0.0158,0.78638,0.46001,1.83984,1.60451,1.53749,1.67034,1.84855,1.87055,2.05377,1.34779,0.21144-0.53861,0.32268-0.48387,0.87714,0.42787,0.77058,1.26711,1.59157,1.35218,1.88262,0.19254,0.16199-0.6454,0.43411-0.85574,1.12316-0.85574,0.50249,0,1.26098-0.24177,1.67939-0.53484,0.11849-0.083,0.23151-0.14341,0.3316-0.19254l0.0214-0.0749,0.79156-0.50274-0.26742-0.17115c-0.19018,0.12238-0.42168,0.009-0.80225-0.24603-0.44211-0.29621-0.41666-0.42999,0.20324-0.95201,1.46969-1.23763,1.99566-3.14484,0.86643-3.14484-0.46633,0-0.69223-0.32228-0.83434-1.19803-0.10724-0.66084-0.43346-1.44966-0.72738-1.74357-0.58894-0.58895-0.7202-1.50825-0.21394-1.50824,0.17715,0,0.41849,0.15403,0.53484,0.34229s0.82386,0.34229,1.57242,0.3423c1.27359,0,1.33093-0.0486,0.97341-0.71668-0.43732-0.81713-0.42748-0.82283,0.6525-1.15525,0.16839-0.0518,0.3047-0.092,0.40647-0.10697,0.0214-0.003,0.0363-0.009,0.0535-0.0107l0.59901-0.22463-1.00549-0.85574,1.43336-0.93062-0.93061-1.36918,1.6473-1.658-1.0055-0.13905v-0.0428c-0.4008,0.10307-0.80851-0.0699-0.81295-0.57762-0.003-0.32946-0.14395-0.8326-0.3209-1.11247-0.27332-0.43228-0.43167-0.39366-1.03759,0.25673-0.87683,0.94117-1.16686,0.9881-0.69529,0.10696,0.5343-0.99834,0.44807-2.1828-0.13905-1.9575-0.26863,0.10308-0.65117-0.0209-0.85574-0.26742-0.28322-0.34126-0.0513-0.77239,0.99479-1.81845,1.65623-1.65622,1.782-2.28571,0.38509-1.97889-0.54687,0.12011-1.08941,0.0795-1.19804-0.0963-0.10863-0.17578,0.41156-0.41592,1.15525-0.53484,0.82654-0.13217,1.49564-0.47383,1.71148-0.87713,0.49997-0.93421,0.45149-1.04828-0.43857-1.04829-0.43467,0-1.07658-0.20689-1.42266-0.45996-0.57456-0.42013-0.49719-0.49658,0.87713-0.84504,2.23761-0.56734,3.14464-2.46025,1.17664-2.46025-1.87064,0-2.51274-0.79997-0.95201-1.18734,1.87399-0.46512,3.41354-2.66292,1.62591-2.32119-0.47174,0.0902-1.1167-0.0456-1.42267-0.29951-0.49083-0.40735-0.37981-0.50198,0.94131-0.82365,1.01811-0.24789,1.63648-0.62926,1.91472-1.18734,0.54068-1.08449,0.30497-1.36918-1.11246-1.36918-1.2876,0-1.62198-0.57285-0.43857-0.74877,1.00169-0.14891,2.07514-1.68141,1.93611-2.75976-0.11211-0.8696-0.12429-0.88126-1.46545-0.41718-0.74584,0.25809-1.43899,0.37885-1.54033,0.26742-0.10134-0.11142-0.0161-0.25645,0.19254-0.3316,0.93004-0.33499,1.5641-1.07699,2.00029-2.34258,0.25868-0.75056,0.43557-1.40311,0.39578-1.44406-0.0398-0.041-0.64084,0.0965-1.33709,0.3102-1.58653,0.48692-1.94613,0.16898-0.97341-0.86643,0.75655-0.805311,1.42267-2.5751,1.42267-3.78665,0-0.633312-0.02-0.633579-0.68459-0.03209-0.82781,0.749155-1.22813,0.495668-0.71668-0.45996,0.50211-0.938219,0.47836-3.47644-0.0321-3.47644-0.2205,0-0.67321,0.244821-1.00549,0.545534-0.57134,0.517055-0.58136,0.485687-0.23533-0.641804,0.20125-0.655733,0.26031-1.7676,0.12836-2.47095l-0.24602-1.28361-0.9948,0.962707c-1.19109,1.14114-1.5719,0.935135-1.04828-0.566928,0.45474-1.30446,0.48117-2.36444,0.0749-3.00578-0.23949-0.378038-0.4309-0.328566-1.0162,0.256722-0.98281,0.982813-1.41197,0.912362-1.41197-0.235328,0-0.528806-0.20612-1.24668-0.45996-1.59382-0.49942-0.683007-1.25151-0.456287-1.25151,0.374386,0,0.809071-0.65157,0.199637-1.20874-1.13386-0.007-0.01651-0.0146-0.02636-0.0214-0.04279-0.007,0.0066-0.0642,0.06418-0.0642,0.06418l-0.71672-2.08588zm0.70599,50.9379c0.19174-0.0363,0.74527,0.58635,1.14455,1.35848,0.28589,0.55286,0.35941,1.0055,0.17115,1.0055-0.31083,0-1.37988-1.7255-1.37988-2.22492,0-0.085,0.0199-0.13069,0.0642-0.13906zm1.89332,3.24111c0.26407,0.01,0.43857,0.18722,0.43857,0.51345,0,0.17715-0.42359,0.31618-0.94131,0.3102-0.8919-0.0103-0.90417-0.037-0.28882-0.50275,0.24527-0.18565,0.47629-0.28493,0.6739-0.3102,0.0412-0.005,0.0799-0.0121,0.11766-0.0107zm1.04828,1.05898c0.1588,0.004,0.34364,0.0713,0.60972,0.19254,0.89366,0.40718,1.02226,0.82823,0.48135,1.6366-0.30036,0.44888-0.40088,0.43812-0.80225-0.0856-0.59059-0.77058-0.77509-0.75461-0.9948,0.0856-0.0985,0.37653-0.34556,0.68459-0.54554,0.68459-0.40473,0-0.17586-0.80202,0.55623-1.9468,0.25677-0.40152,0.43064-0.57364,0.69529-0.56693zm-49.5366,1.14455c0.17367,0,0.32091,0.0867,0.32091,0.19254,0,0.55651-1.80622,3.89465-2.39608,4.42845-1.09467,0.99068-0.89339,1.8798,0.42787,1.89333l1.11247,0.0107-0.85574,0.71668-0.85574,0.71668,0.72738,0.49205c0.4784,0.31924,0.6807,0.72015,0.56692,1.15525-0.17174,0.65676-0.78086,0.94901-0.78086,0.37439,0-0.162-0.40069-0.88668-0.88783-1.60452-1.15687-1.70474-0.94678-3.69402,0.54553-5.12374,0.55314-0.52993,1.18337-1.47939,1.39058-2.10725,0.20721-0.62787,0.51094-1.14456,0.68459-1.14456zm20.527,1.73287c0.15342-0.0329,0.20934,0.20253,0.0749,0.71668-0.12784,0.48888,0.0265,0.89756,0.45996,1.21943,0.63555,0.47199,0.62859,0.50238-0.12836,1.12316-0.74524,0.61118-0.7433,0.64308-0.10697,0.84504,0.53678,0.17037,0.60749,0.3837,0.39578,1.13386-0.1439,0.50992-0.20292,1.08465-0.13906,1.27291,0.0639,0.18826-0.34572,0.60991-0.90922,0.93062-1.28038,0.72871-1.29865,1.14245-0.0535,1.78635,1.03034,0.53282,1.79616,1.95011,1.66869,3.10206-0.0578,0.52223,0.12807,0.68459,0.78086,0.68459,0.66943,0,0.88108,0.19428,0.96271,0.89853,0.0954,0.82341,0.16753,0.86723,0.93062,0.51344,0.45886-0.21274,0.84357-0.50061,0.84504-0.6418,0.001-0.1412,0.17487-0.25673,0.38508-0.25672,0.38554,0,0.28449,0.96321-0.22463,2.18213-0.23823,0.57038-0.14472,0.63418,0.82365,0.49205,1.51503-0.22236,1.60892,0.16488,0.36369,1.58312l-1.06968,1.20873,0.90923,0.35299c0.5006,0.19033,1.05411,0.3423,1.23012,0.3423,0.46224,0,0.3946,0.45731-0.18184,1.21943-0.77422,1.02361-0.62797,1.26444,0.67389,1.11246,0.68047-0.0794,1.2133,0.01,1.24083,0.21394,0.0267,0.19752,0.0652,0.74876,0.0856,1.21942,0.0326,0.75119,0.17734,0.84807,1.16594,0.77017,1.02572-0.0808,1.10012-0.0282,0.77017,0.58832-0.30383,0.5677-0.51252,0.6207-1.27291,0.3316-0.67421-0.25633-0.97922-0.23176-1.18734,0.0963-0.21705,0.3421-0.28475,0.34251-0.28881,0.0107-0.009-0.74289-0.48469-0.4658-1.3264,0.77017-0.44786,0.65763-0.94202,1.19803-1.09107,1.19803-0.36501,0-0.77515-1.94461-0.50274-2.38537,0.37433-0.60569-0.71638-0.38384-1.62591,0.3316-1.18515,0.93224-1.31159,0.86102-0.69529-0.37439,0.38748-0.77673,0.41994-1.15249,0.13906-1.43336-0.28088-0.28088-0.48938-0.27009-0.79156,0.0321-0.57422,0.57422-2.32119,0.52503-2.32119-0.0642,0-0.25934,0.23105-0.66416,0.51344-0.89853,0.2824-0.23436,0.51344-0.79728,0.51344-1.25152,0-0.67792-0.1073-0.7711-0.59901-0.51344-0.36594,0.19176-0.93199,0.18728-1.45476-0.0107-0.82866-0.31382-0.83408-0.33724-0.17115-0.70599,1.6708-0.92935,2.06088-2.39748,0.55623-2.09656-1.26533,0.25307-1.74282-0.43118-0.77016-1.11246,0.97813-0.68511,0.95463-1.69686-0.0428-1.67939-1.3435,0.0236-1.16807-0.59831,0.31021-1.09106,1.727-0.57567,2.15431-1.36284,0.9841-1.80775-0.71525-0.27194-0.80449-0.47369-0.64181-1.47616,0.17586-1.08366,0.11335-1.17109-0.87713-1.36918-1.4143-0.28286-1.39392-1.26203,0.0428-2.47095l1.10176-0.91992-0.75947-0.62041c-0.94799-0.76763-0.96394-1.01619-0.0428-1.01619,0.63634,0,0.70548-0.14233,0.51345-1.16594-0.12339-0.65768-0.0479-1.54955,0.18184-2.05378,0.24509-0.53791,0.49909-0.8335,0.6525-0.86643zm-12.4831,0.0749c0.0164-0.002,0.0333,0.009,0.0535,0.0214,0.48554,0.30009,1.24793,3.1754,0.9627,3.6369-0.13064,0.21138-0.0477,0.61978,0.19255,0.90922,0.32887,0.39627,0.34174,0.68296,0.0535,1.14455-0.31822,0.50955-0.24174,0.66926,0.44926,0.9841,0.67959,0.30964,0.83435,0.62895,0.83435,1.75427,0,1.24909-0.0811,1.37987-0.87713,1.37988-0.71328,0-0.85724,0.14395-0.77017,0.77016,0.0805,0.57867-0.0845,0.79495-0.6632,0.87714-1.10627,0.15711-0.97598,1.26006,0.25672,2.17144,1.24989,0.92408,1.32872,1.46716,0.17115,1.17664-0.59953-0.15048-0.85574-0.0811-0.85574,0.24602,0,0.55312,1.07588,1.60451,1.6473,1.60451,0.2205,0,0.40648,0.14209,0.40648,0.31021,0,0.46492-0.86542,0.68826-1.39058,0.36369-0.25633-0.15842-0.58789-0.21049-0.73807-0.11767-0.50299,0.31086-0.27251,1.09958,0.62041,2.16075,0.79232,0.94161,0.81545,1.07082,0.28881,1.27291-0.32374,0.12423-0.8704,0.0468-1.21943-0.17115-0.34903-0.21797-0.71627-0.39578-0.81295-0.39578-0.39494,0-0.1366,1.61304,0.37438,2.34259,0.70461,1.00597,0.43082,1.24751-0.87713,0.79156l-1.03758-0.36369v1.52963c0,1.12516-0.13401,1.51894-0.51345,1.51894-0.28239,0-0.51344-0.13077-0.51344-0.28881,0-0.25121-1.58886-1.13581-2.05378-1.14455-0.0941-0.002-0.12543,0.475-0.0642,1.05897,0.17123,1.63239-0.69374,1.31531-1.45475-0.53483-0.58553-1.42351-0.68607-1.51683-0.93062-0.85574-0.44399,1.20021-0.9734,0.84829-0.9734-0.64181,0-1.25951,0.0594-1.35,0.66319-1.02688,0.97794,0.52337,1.04829,0.46458,1.04829-0.84505,0-1.04198,0.10764-1.19804,0.83434-1.19803,1.11164,0,1.37135-0.51398,0.72738-1.43337-0.5012-0.71556-0.47491-0.77797,0.52414-1.19803l1.04828-0.43857-1.04828-1.05898c-1.3215-1.3215-1.33691-1.6126-0.0428-1.42266,1.38545,0.20334,2.31039-0.14986,1.77566-0.68459-0.84422-0.84423-0.45856-1.33763,0.85574-1.09107,1.0473,0.19647,1.21832,0.15429,1.04828-0.28881-0.20368-0.53078,2.1353-3.33739,2.78116-3.33739,0.17275,0,0.5179-0.25227,0.77016-0.55623,0.39532-0.47632,0.32504-0.66934-0.51344-1.39058-0.53506-0.46023-1.18512-0.75186-1.44406-0.6525-0.31764,0.12189-0.47066-0.0857-0.47066-0.6311,0-0.44461,0.25305-0.90644,0.56693-1.02689,0.43496-0.16691,0.47566-0.3052,0.17115-0.60972-0.55532-0.55532-0.49657-0.95201,0.13905-0.95201,0.3498,0,0.47841-0.20846,0.36369-0.59901-0.43093-1.46699-0.60907-3.04301-0.36369-3.06998zm33.684,1.48685c0.19356,0.004,0.43585,0.22396,0.63111,0.6525,0.21176,0.46475,0.27622,0.83851,0.13906,0.82365-0.65021-0.0705-1.10177-0.42302-1.10177-0.84504,0-0.42471,0.13804-0.63492,0.3316-0.63111zm-8.01186,0.95204c0.037-0.003,0.0641-0.00011,0.0749,0.0107,0.33017,0.33017,0.49354,3.2732,0.18184,3.2732-0.17886,0-0.95464,0.54105-1.72217,1.19804-1.17652,1.00705-1.43303,1.10586-1.61521,0.6311-0.13111-0.34166,0.0782-0.88309,0.53483-1.36918,0.41397-0.44065,0.68891-0.84177,0.60972-0.89853-0.0792-0.0568-0.5923-0.29675-1.14455-0.53483l-1.0055-0.43857,2.00029-1.00549c0.96227-0.48538,1.82715-0.84344,2.08587-0.86644zm-43.7818,2.37468c0.22768,0.0143,0.10587,0.60905-0.36369,1.73287-0.71262,1.70553-1.07822,1.6981-0.94132-0.0214,0.0669-0.84072,0.2062-1.4411,0.31021-1.33709,0.104,0.104,0.39985,0.0171,0.6525-0.19254,0.15348-0.12737,0.2664-0.18663,0.3423-0.18184zm34.4863,0.75946c0.53508-0.0145,0.8647,0.31089,0.87713,0.91992,0.003,0.1412-0.52842,0.25672-1.18734,0.25673-1.41934,0-1.57517-0.55921-0.28881-1.04829,0.2192-0.0833,0.42066-0.12353,0.59902-0.12836zm-19.8211,1.17665c0.2824,0,0.51345,0.14208,0.51345,0.3102s-0.23105,0.39438-0.51345,0.50275c-0.31276,0.12001-0.51344-0.004-0.51344-0.31021,0-0.27648,0.23105-0.50275,0.51344-0.50274zm-9.1778,4.10755c0.20255-0.0103,0.39491,0.0633,0.55623,0.22463,0.12258,0.12258-0.0479,0.42593-0.37439,0.67389-0.94739,0.71941-1.53905,0.60315-1.10176-0.21393,0.22676-0.42371,0.58233-0.66735,0.91992-0.68459zm39.5138,0.0642c0.53226-0.008,0.69542,0.23709,0.55623,0.78086-0.097,0.37888-0.82534,0.49768-1.71148,0.27811-0.94421-0.23395-0.70832-0.69906,0.49205-0.9627,0.26275-0.0577,0.48578-0.0937,0.6632-0.0963zm-38.9362,6.2148c0.12274-0.0237,0.21394,0.0406,0.21394,0.18185,0,0.18826-0.15404,0.43987-0.3423,0.55623-0.18826,0.11635-0.3423,0.0599-0.3423-0.12836s0.15404-0.43988,0.3423-0.55623c0.0471-0.0291,0.0874-0.0456,0.12836-0.0535z"/>
<path fill="#000" d="m249.856,183.982c-1.45727-2.25796-1.58532-3.52174-0.75435-7.44481,0.57984-2.73747,0.66444-5.30571,0.17476-5.30571-0.36332,0-1.19609,2.71292-1.5654,5.09958-0.29822,1.92731-0.95777,3.49918-1.75329,4.17856-0.76013,0.64915-2.80748,1.49184-3.04571,1.25361-0.0944-0.0944-0.20495-0.94515-0.24575-1.89063-0.0677-1.56889,0.0513-1.86787,1.36198-3.42239,1.54332-1.83042,2.6648-3.79305,3.03097-5.3043,0.35356-1.45918-0.27013-1.11266-1.2159,0.67555-1.14252,2.1602-4.48909,5.5594-5.5261,5.61299-2.86229,0.14793-2.85678,0.14913-2.96966-0.64615-0.17607-1.24037,1.16691-3.06135,2.6062-3.53382,2.51021-0.82402,5.20555-3.04964,5.20555-4.29838,0-0.34318-0.34947-0.25529-1.28361,0.32281-1.87968,1.16326-3.76522,1.99138-5.71869,2.51162-3.5642,0.94919-5.7255,0.36577-7.26542-1.96119-1.40737-2.12669-0.73315-4.40697,1.67055-5.64997,1.2381-0.64025,1.7221-0.60278,1.5581,0.12062-0.42133,1.85846,2.19839,3.7508,4.64985,3.3588,1.86393-0.29806,4.76439-1.99666,6.02888-3.53071,1.44609-1.75435,2.71263-5.14192,2.97404-7.95453,0.19226-2.06868,0.14714-2.39915-0.32758-2.39915-1.31304,0-1.65515-2.44396-0.51239-3.66037,0.71754-0.76378,0.72916-0.88554,0.29619-3.10273-0.4601-2.35607-2.61899-8.91296-3.11202-9.45168-0.36182-0.39533-0.77819,2.47824-0.61184,4.22255,0.13848,1.45209-0.0264,1.60501-1.10693,1.02672-0.83536-0.44707-0.88382,0.18793-0.14864,1.94746,0.28239,0.67587,0.51344,1.38332,0.51344,1.57213,0,0.33086-1.27192,0.19977-2.43666-0.25113-0.36144-0.13992-0.61623,0.00034-0.73295,0.4039-0.0984,0.34011-0.4323,1.20441-0.74198,1.92067-0.55492,1.28348-0.55299,1.2969,0.13394,0.92926,0.38334-0.20515,0.69699-0.4969,0.69699-0.64832,0-0.478,1.6921-1.06979,3.05885-1.06979,0.80562,0,1.62823,0.26082,2.12324,0.6732,0.78159,0.65113,0.78479,0.67358,0.0976,0.6846-0.39078,0.006-1.07227,0.39647-1.51443,0.86712-0.44216,0.47066-1.16699,0.85574-1.61074,0.85574s-0.89323,0.22519-0.99884,0.50042-0.51888,0.60415-0.91838,0.73094c-0.39949,0.1268-1.38647,0.89067-2.1933,1.69749-1.42369,1.42369-1.46695,1.53189-1.46695,3.66891,0,1.84188-0.13261,2.34505-0.81092,3.07697-0.44601,0.48124-0.91104,1.2739-1.03341,1.76146-0.35436,1.41188-0.78278,1.04708-1.54649-1.31686-0.70093-2.16962-0.67299-2.9442,0.14277-3.958,0.52155-0.64817,0.87624-2.05378,0.51826-2.05378-0.1483,0-0.71151,0.44174-1.25157,0.98164-0.6329,0.63271-1.46861,1.04656-2.35111,1.16431-0.75305,0.10046-1.6635,0.30084-2.02322,0.44528-0.5624,0.22581-0.62452,0.14661-0.44335-0.56529,0.19452-0.76438,0.13965-0.74497-0.71515,0.25299-2.36393,2.75984-5.77765,2.89999-6.43916,0.26435-0.51788-2.06341,1.0834-3.70661,2.58627-2.65396,0.68074,0.47681,0.79072,0.46701,1.24608-0.11105,2.0791-2.6393,3.07591-6.32251,3.42881-12.6694,0.29956-5.38771-0.0181-6.27845-1.01789-2.85443-1.25685,4.30427-4.45565,8.91833-6.54666,9.44314-2.50402,0.62846-4.75495-0.94537-4.08078-2.85326,0.29321-0.82979,0.51387-0.94514,1.85245-0.96835,1.43255-0.0249,1.55271-0.10327,2.09771-1.36918,0.98859-2.29628,2.0121-8.11496,1.99388-11.3352l-0.017-3.01484-0.92426,1.88582c-1.76504,3.60134-3.69687,5.60019-5.82343,6.02551-0.91941,0.18388-1.25284,0.0392-2.28191-0.98983-1.4035-1.40349-1.58213-2.79368-0.50724-3.94744,0.81712-0.87708,1.44769-0.94992,2.04044-0.23569,1.20786,1.45538,2.39607-0.56536,2.39607-4.07487,0-2.2751-0.58155-5.00913-2.33686-10.9862-1.79836-6.12365-1.93306-6.98087-1.9363-12.3226-0.003-4.35762,0.11166-5.4973,0.75554-7.53282,1.23241-3.89611,4.07657-7.77797,6.67022-9.10388,1.55881-0.796885,4.44949-0.874418,5.0625-0.135785,0.23437,0.282394,0.63047,0.513444,0.88023,0.513444,0.55338,0,1.9309,1.81884,2.5319,3.34306,1.07873,2.73581-0.51293,6.31242-3.47772,7.81479-0.90524,0.458721-1.64589,1.05548-1.64589,1.32615,0,0.27065,0.36552,1.49909,0.81226,2.72986,1.31194,3.61434,5.00297,7.82326,9.28547,10.5883,3.14396,2.02994,4.89906,2.82852,6.86228,3.12237,1.36797,0.20475,1.40596,0.18109,2.99473-1.86479l1.60918-2.07216h-1.36882c-0.75286,0-1.36883-0.0792-1.36883-0.17599,0-0.0968,0.68318-1.01474,1.51817-2.03989,3.03081-3.72102,3.83237-7.36122,2.18888-9.94065-0.48157-0.75581-1.12757-1.58335-1.43557-1.83896-0.308-0.25562-0.56-0.59694-0.56-0.758497,0-0.161553-0.53912-1.13651-1.19804-2.16657s-1.19803-1.95724-1.19803-2.06042c0-0.744972,1.90277,0.534307,4.74277,3.18867,1.04505,0.976755,1.76085,1.34404,1.76085,0.903531,0-0.09353-0.73166-0.921802-1.62591-1.84061-0.89424-0.9188-2.07648-2.2421-2.62718-2.94066-1.03287-1.31018-1.36175-1.37427-3.53414-0.688644-0.65124,0.205538-0.76899,0.117982-0.76255-0.567017,0.0159-1.69272,1.81656-3.03501,4.07142-3.03501,1.47295,0,2.50622,0.832631,5.56724,4.48622,1.01194,1.20784,1.34554,1.41971,1.69436,1.07608,0.23889-0.235329,1.07639-0.42787,1.86113-0.42787,1.3741,0,1.52325,0.113423,4.03909,3.07146,1.43676,1.6893,2.6123,3.21038,2.6123,3.38017s-0.48177,0.40506-1.07061,0.52283c-1.03778,0.20756-1.06377,0.25683-0.84784,1.60721,0.12252,0.76621,0.46798,1.76734,0.76768,2.22474,0.53221,0.81225,0.36901,1.03249-0.64628,0.87218-0.1412-0.0223-0.25587,0.22902-0.25481,0.55848,0.004,1.32632,0.75487,3.1558,2.0583,5.0165,0.75582,1.07898,1.27466,2.12289,1.15296,2.3198-0.12644,0.20458-0.80055,0.28032-1.5729,0.17672l-1.35164-0.18129,0.62585,0.73054c0.34422,0.4018,0.79427,0.91476,1.00011,1.13991,0.20585,0.22515,0.57045,0.883,0.81023,1.46188,0.49625,1.19804,0.74736,1.19443,4.29224-0.0618,6.96158-2.46694,11.4483-6.65217,13.5944-12.6809,1.39768-3.92631,1.32899-4.3876-0.76414-5.13101-2.54831-0.905082-3.58827-2.61815-3.58827-5.91078,0-2.25678,0.0933-2.58944,1.06317-3.79039,1.39437-1.72658,2.7596-2.49279,4.89162-2.74529,3.32562-0.393873,6.2363,1.53648,7.91139,5.24682,3.11765,6.90562,3.85899,14.7037,2.02879,21.3407-1.62728,5.90118-2.08848,8.93471-1.95314,12.8469,0.14659,4.23741,0.3165,4.78907,1.3111,4.25677,0.88707-0.47474,1.95896,0.11035,2.23784,1.22153,0.26421,1.05266-0.53753,2.35529-1.87544,3.04715-0.89954,0.46517-1.10202,0.44478-2.47843-0.2496-1.92586-0.97157-3.4753-3.27313-4.10039-6.09077-0.42616-1.92093-0.50268-2.04755-0.69522-1.15032-0.61168,2.8505-0.0704,8.4767,1.12307,11.6738,0.8272,2.21586,1.43424,2.78774,2.17395,2.04803,1.35288-1.35289,3.19158,1.00085,2.09237,2.67847-1.12359,1.71481-3.71263,1.93038-5.75112,0.47885-1.98861-1.41602-3.81391-6.68568-4.25244-12.2768-0.2118-2.70044-0.30001-3.04867-0.52027-2.05377-0.71976,3.25114-0.62578,9.0142,0.24175,14.8246,1.38678,9.28821,1.47972,9.65028,2.27344,8.85656,0.52471-0.52471,2.06872-0.52131,2.59574,0.006,0.66452,0.66451,0.49319,2.56644-0.29754,3.30312-1.35191,1.25949-4.10485,1.15754-5.77512-0.21387-0.69632-0.57174-2.75857-5.13396-2.75857-6.10269,0-0.53693-0.54161-0.64395-0.83733-0.16547-0.10623,0.17188-0.7996,0.41498-1.54083,0.54021-2.57624,0.43525-2.71528,1.88565-0.18077,1.88565,1.19232,0,1.75661,0.21809,2.69412,1.04123,1.06624,0.93617,1.91592,2.84079,1.46741,3.28929-0.0957,0.0957-0.57426-0.0882-1.06345-0.40876-0.60316-0.3952-1.23181-0.5143-1.95316-0.37004-0.86667,0.17334-1.2803,0.0226-2.23283-0.81375-1.07205-0.94127-2.17219-1.34786-2.17219-0.8028,0,0.12303,0.38813,1.04412,0.8625,2.04686l0.8625,1.82317-0.72104,2.23184c-0.74997,2.32141-1.68855,3.05101-1.68855,1.31258,0-0.50559-0.30869-1.24784-0.68598-1.64945-0.37729-0.4016-0.77025-1.41274-0.87325-2.24698-0.38385-3.10897-0.48374-3.66874-0.80595-4.5162-0.42707-1.12329-1.64498-1.96388-2.84542-1.96388-0.95015,0-1.60643-0.52058-2.76375-2.19231-0.33825-0.48859-0.90679-0.88835-1.26341-0.88835-0.94841,0-1.15771-0.59276-0.36004-1.01965,0.43021-0.23024,1.53611-0.28275,2.93563-0.13936,2.03754,0.20875,2.29372,0.32351,2.76754,1.23978,0.28718,0.55535,0.57193,0.95691,0.63276,0.89235,0.13359-0.14178-1.07986-4.97112-1.36502-5.43251-0.11074-0.17918-0.53674-0.0133-0.94665,0.36857-0.7582,0.70637-2.19068,1.23283-2.50345,0.92007-0.0948-0.0948,0.14346-1.10962,0.52939-2.25523,0.9097-2.70042,0.91777-3.27115,0.0396-2.80116-1.02409,0.54807-1.0681,0.47471-0.86545-1.44272,0.10446-0.98838,0.0598-2.2456-0.0992-2.79382-0.26905-0.92772-0.4222-0.69061-2.21102,3.42296-2.97218,6.83485-3.30518,8.71262-1.81016,10.2076,1.0877,1.0877,1.0877,2.24807,0,3.42172-1.03462,1.11637-1.06349,1.98669-0.17137,5.16602,0.9269,3.30327,2.06801,5.55948,3.61337,7.14439,1.63684,1.67872,3.05757,2.26951,5.45769,2.26951,3.49129,0,5.90476-1.70737,5.54523-3.92289-0.18457-1.13738-0.1403-1.2108,0.72318-1.19941,2.15938,0.0285,3.82344,1.96214,3.82706,4.44712,0.004,2.59061-1.61499,4.04795-5.3474,4.81418-1.833,0.37631-2.33655,0.35559-3.98868-0.16407-1.03997-0.32711-2.56047-1.01928-3.37889-1.53815-1.61814-1.02589-3.02838-1.51688-3.02838-1.05435,0,0.32324,2.80875,2.64856,5.21506,4.31745,1.05908,0.73453,1.68775,1.47932,1.96964,2.33343,0.22771,0.69,0.34297,1.32561,0.25612,1.41246-0.34366,0.34366-3.89147,0.23067-4.59558-0.14636-0.41187-0.22055-1.61947-1.70946-2.68356-3.30869-1.925-2.89308-2.44388-3.48033-2.77903-3.14518-0.20301,0.20302,0.29434,1.05093,2.87729,4.9054,1.82309,2.72054,1.86227,2.82971,1.62767,4.53542-0.26442,1.9226-0.50196,2.04988-2.36937,1.26963-1.24327-0.51947-2.10795-1.90277-2.45071-3.92059-0.34529-2.03277-1.58383-5.65912-2.12177-6.21244-0.43856-0.45109-0.47097-0.3056-0.2668,1.19804,0.12781,0.94131,0.60052,3.26058,1.05046,5.15393,0.45232,1.90333,0.72158,3.81635,0.60223,4.2787-0.18155,0.70336-2.06697,4.08805-2.27722,4.08805-0.0373,0-0.63944-0.88569-1.33809-1.9682zm-18.271-31.692c1.31749-0.61614,1.56252-0.85423,1.19397-1.1601-0.25505-0.21167-0.89676-0.43494-1.42603-0.49616-0.84175-0.0974-1.01843,0.0495-1.41035,1.1723-0.24643,0.70599-0.35068,1.27812-0.23167,1.27141,0.11902-0.007,0.96235-0.36106,1.87408-0.78745zm36.9821-4.33478c0.81696-0.75305,1.71886-1.36919,2.00421-1.36919,1.11764,0,1.31975-0.82677,0.80488-3.29257-0.27048-1.29542-0.66142-4.96477-0.86875-8.1541-0.20732-3.18934-0.42975-5.8516-0.49429-5.91614-0.2531-0.25311-0.55189,4.06625-0.57949,8.37755-0.016,2.49448-0.14153,4.53542-0.27901,4.53542-0.62353,0-2.55578-5.18995-3.26993-8.7829l-0.46546-2.34172-0.0322,2.35241c-0.0276,2.01525-0.10338,2.29331-0.52901,1.94007-0.27327-0.2268-0.8894-1.2001-1.36919-2.1629-0.96721-1.94095-1.09809-1.63463-0.40635,0.95109,0.7144,2.67041,3.00401,6.88328,4.2962,7.90497,0.7903,0.62486,0.18415,1.50816-1.03495,1.50816h-1.08639l0.20946,2.00401c0.24072,2.30305,0.73866,3.81502,1.25642,3.81502,0.19713,0,1.02685-0.61613,1.84381-1.36918zm-32.732-1.11246c0.42195-1.17665,0.76715-2.2282,0.76711-2.33679s-0.46217-0.12962-1.02696-0.0467c-0.56479,0.0829-1.02689,0.072-1.02689-0.0243s0.58746-1.15346,1.30547-2.34935c1.41886-2.36321,1.88448-3.44169,2.46273-5.70427,0.2075-0.81189,0.45438-1.73609,0.54862-2.05378,0.0942-0.31768-0.26086,0.19256-0.78912,1.13388l-0.96048,1.71148-0.0994-2.82394c-0.0572-1.6237-0.2476-2.82395-0.44807-2.82395-0.19176,0-0.27678,0.11629-0.18895,0.25841,0.0878,0.14212-0.21529,1.95201-0.67361,4.02197-0.81019,3.65918-1.69914,5.9885-2.28542,5.9885-0.15839,0-0.18046-1.23262-0.049-2.73915,0.14502-1.66249,0.0939-3.31065-0.13005-4.19312-0.20294-0.79969-0.46385-2.04734-0.57978-2.77256-0.11594-0.72523-0.27933-1.25005-0.3631-1.16629-0.0838,0.0838-0.16532,3.52192-0.18123,7.64034-0.0206,5.3415,0.0834,7.52548,0.36289,7.61865,0.2155,0.0718,0.77102,0.73129,1.23448,1.46547,0.46347,0.73418,0.95764,1.33487,1.09816,1.33487s0.60072-0.96271,1.02266-2.13935zm10.608-51.9069c-0.80744-0.818727-0.75374-1.13299,0.17115-1.00164,0.49495,0.07029,0.80925,0.3846,0.87955,0.879546,0.12985,0.914289-0.22837,0.955912-1.0507,0.12209z"/>
<g fill="#f8d808">
<path d="m267.377,160.877c-0.0443-0.42359,0.11579-1.17686,0.35564-1.67394,0.38862-0.80539,0.33881-1.04696-0.45748-2.21881-0.82532-1.21456-1.16576-2.82361-0.69668-3.2927,0.33815-0.33814,2.27225,0.37444,3.0826,1.13572,0.50574,0.47512,1.31682,0.76114,2.34126,0.82562,0.86209,0.0543,1.56744,0.0666,1.56744,0.0275,0-0.0392-0.42359-0.53945-0.94131-1.11177-0.72789-0.80463-1.31795-1.08161-2.6025-1.22161-0.91365-0.0996-1.90129-0.42116-2.19475-0.71462-0.48323-0.48324-0.42805-0.63215,0.58492-1.5784,0.71932-0.67196,1.47588-1.04484,2.11992-1.04484,0.65778,0,1.06248-0.20556,1.17934-0.59901,0.0978-0.32946,0.40588-1.04347,0.68453-1.58669,0.61691-1.20266,0.45516-1.43285-0.59788-0.85088-0.43972,0.24302-1.01996,0.39636-1.28944,0.34077-0.26947-0.0556-1.14978,0.61757-1.95624,1.49592-0.88065,0.95915-1.70029,1.55187-2.05216,1.48402-0.56103-0.10819-1.29292-2.39979-1.97522-6.18457-0.35126-1.94844-2.25497-2.65642-2.25497-0.83861,0,0.88686,1.09845,4.79119,1.73005,6.14932,0.35537,0.76415,0.35752,1.0327,0.011,1.36919-0.34166,0.33175-0.54921,0.25449-1.00049-0.37239-1.69938-2.36068-2.01225-2.62557-2.56209-2.16924-0.40618,0.3371-0.70105,0.34937-1.25622,0.0522-0.39899-0.21354-0.90904-0.32705-1.13343-0.25226-0.23351,0.0778-0.079,0.31205,0.36128,0.54769,0.42309,0.22643,0.76925,0.58669,0.76925,0.80057,0,0.79646,1.15398,1.64081,2.24252,1.64081,2.1662,0,3.91285,2.99681,3.91689,6.72042,0.002,1.46838,0.11442,1.78655,0.68651,1.93616,0.3858,0.10089,0.68459,0.46689,0.68459,0.83861,0,0.61237,0.2685,1.11598,0.59499,1.11598,0.0762,0,0.10239-0.34657,0.0581-0.77016z"/>
<path d="m235.323,159.426c0.20281-0.37864,0.39069-1.65609,0.41752-2.83879,0.045-1.98182,0.14102-2.23605,1.22547-3.24351,1.39029-1.29158,4.65325-3.33467,5.3257-3.33467,0.25958,0,0.47197-0.17556,0.47197-0.39013,0-0.21458,0.25136-0.57394,0.55858-0.79858,0.47364-0.34633,0.37462-0.41537-0.65117-0.45393-0.9066-0.0341-1.58271,0.25099-2.69794,1.13755-2.53201,2.01285-2.87193,1.58031-1.46982-1.87031,0.79469-1.95575,0.82578-2.20452,0.3423-2.73876-0.29249-0.32319-0.53179-0.78087-0.53179-1.01706,0-0.2362-0.18738-0.36699-0.41638-0.29066-0.3614,0.12047-1.08746,2.19369-1.7695,5.0527-0.11228,0.47066-0.33995,1.06418-0.50593,1.31895-0.46375,0.71179-1.65359-0.083-2.36104-1.57714-0.42334-0.8941-0.89134-1.32697-1.62192-1.50018-0.56479-0.1339-1.41197-0.35498-1.88263-0.49129l-0.85574-0.24784,0.72524,0.82088c0.39889,0.45148,0.82114,1.22743,0.93834,1.72434,0.14113,0.59836,0.51511,0.97926,1.10746,1.12793,1.18266,0.29683,2.53672,1.20154,2.52588,1.68766-0.005,0.21367-1.05777,0.89417-2.34001,1.5122-2.17936,1.05044-3.81265,2.57203-3.81265,3.55189,0,0.33026,0.0913,0.33334,0.41076,0.0139,0.22591-0.22591,0.8585-0.41075,1.40575-0.41075,0.64603,0,1.59811-0.4802,2.71462-1.36918,0.94579-0.75305,1.87068-1.36919,2.0553-1.36919,0.47132,0,0.0117,2.29685-0.76227,3.80951-0.45212,0.8836-0.58061,1.65272-0.44501,2.66373,0.18592,1.38611,0.2073,1.40637,0.86042,0.81532,0.36837-0.33337,0.83569-0.91592,1.03849-1.29455z"/>
<path d="m265.184,123.796c7.482-1.80626,13.0511-4.3988,16.1313-7.50948,2.72379-2.75075,3.65099-4.24308,4.58707-7.38296,1.32843-4.45596,0.61729-7.33766-3.19324-12.9396l-1.02165-1.50196,0.81909-0.62978c0.4505-0.346379,0.93461-0.633202,1.07581-0.637389,0.4203-0.01246,0.29165-1.19818-0.20347-1.87529-0.69713-0.953383-2.19991-0.469945-2.3411,0.753126-0.15465,1.33973-1.15832,1.42638-1.4191,0.122514-0.25437-1.2719-1.31335-1.9231-2.28323-1.40403-1.23744,0.662257-0.49226,2.73837,0.98288,2.73837,0.5924,0,1.41319,0.614055,1.41319,1.05725,0,0.129658-0.53044,0.335251-1.17875,0.456876-1.21451,0.227842-1.75065,1.01273-1.36977,2.00529,0.50108,1.30579,2.62571,0.645385,3.25586-1.01202,0.16643-0.437755,0.49896-0.795817,0.73894-0.79569,0.53995,0.000284,2.83484,4.72055,3.37719,6.94641,1.33241,5.46829-3.16759,12.0799-10.869,15.9693-2.76435,1.39605-9.58778,3.88033-12.6096,4.59089-1.56869,0.36887-1.72027,0.49259-1.81681,1.48285-0.10403,1.06715-0.0914,1.07669,1.02689,0.77739,0.62272-0.16666,2.82658-0.71207,4.89747-1.21201z"/>
<path d="m242.421,123.455c0-0.24015-0.63831-0.52597-1.45476-0.65141-4.02919-0.61908-14.058-3.48863-15.5043-4.43625-0.40936-0.26823-0.95845-0.6966-1.2202-0.95194-0.26174-0.25535-1.05087-0.816-1.75361-1.24589-1.70683-1.04414-3.50562-3.19761-4.60455-5.51247-0.71738-1.51116-0.97278-2.56298-1.06128-5.19595-0.0552-1.61782,0.0263-2.19069,0.42272-3.60538,0.71121-2.53823,2.87595-5.74836,4.62202-6.67852,0.27188-0.03262,0.35847,0.271441,0.35847,0.706464,0,1.62839,2.48713,1.93258,2.6728,0.3269,0.0821-0.709751-0.10283-1.01461-0.83046-1.36918-1.50564-0.733705-1.4218-1.31188,0.19025-1.31188,1.15674,0,1.4722-0.147375,1.785-0.833911,0.50476-1.10781,0.18038-1.833-0.9464-2.11581-1.18744-0.29803-1.987,0.213357-2.12376,1.35834-0.11951,1.00056-1.08653,1.27237-1.09496,0.307772-0.007-0.842557-0.3878-1.32493-1.25933-1.59679-0.57265-0.17863-0.88342-0.03238-1.30793,0.615503-0.69439,1.05978-0.22309,2.15159,1.06874,2.47581l0.87255,0.218997-1.17273,1.2398c-1.86742,1.97422-2.82892,3.48757-3.6149,5.68964-1.09829,3.0771-1.20245,4.48919-0.59398,8.05274,0.70969,4.15642,1.78361,6.34441,4.19628,8.54946,3.6255,3.31349,7.93359,4.87092,16.4517,5.94747,4.53472,0.57312,5.90256,0.57694,5.90256,0.0165z"/>
<path d="m248.587,100.2c0.23668-0.28518,0.63507-1.39929,0.88531-2.4758,0.43762-1.88258,0.42486-1.99018-0.33428-2.81888-0.4341-0.473871-1.27965-1.56235-1.87901-2.41885-1.452-2.07492-2.80781-2.85426-4.5573-2.61961-1.28351,0.172155-2.67631,1.03363-2.67631,1.65536,0,0.155047,0.37372,0.111626,0.83049-0.09649,1.44087-0.656503,2.46708-0.09648,4.02064,2.19413,0.79654,1.17444,1.97634,2.63453,2.62179,3.24465,0.93639,0.885135,1.09282,1.20656,0.77412,1.59057-0.60358,0.727269-1.52462,0.314015-3.42437-1.53645-1.9534-1.90272-2.33736-2.09356-1.47987-0.735549,2.68071,4.24543,4.11373,5.34843,5.21879,4.01691z"/>
<path d="m254.059,99.5203c0.36772-0.443071,0.2958-0.36561-0.64268-0.299509-0.58814,0.04143-1.15126-0.195085-1.08653-1.3266,0.0428-0.747749-0.52001-0.790388-0.79999-0.06078-0.55363,1.44274,1.5612,2.85326,2.5292,1.68689z"/>
</g>
</g>
<g id="reagle">
<g fill="#ec002f">
<path id="reshape" d="m313.843,81.6178c-2.63301,0-2.94391,2.5699-4.80321,2.5699s-1.87055-1.16176-2.73715-1.6848c-0.58905,2.3162,0.67137,4.9457,2.5034,4.94571,2.15398,0,2.27238-2.97364,4.2226-2.97364,1.1916,0,1.2861,1.22396,1.87001,2.58543,0.52167,1.21636,2.04164,1.9363,3.60429,2.28263-2.36209,2.02447-4.27357,4.61961-5.63265,4.61962-1.37,0-2.4657-1.96431-2.4657-1.96431-0.69628,1.08024-1.23146,4.30129,1.5684,4.30129,1.51719,0,3.0463-1.00933,3.0463-1.00933-3.13494,6.10212-5.233,12.6452-5.233,18.7968,0,2.44092-2.16207,5.79107-4.65241,6.99542,0.3647,1.12655,1.17375,2.0963,2.5411,2.0963,3.6399,0,1.80953-7.58533,5.73822-8.77339-0.79374,5.02502-0.72343,10.0628-0.34686,16.3356,0.24942,4.15474-1.6303,7.32164-4.41865,8.68798-0.99186,0.48603,0.20732,2.04971,2.1113,2.04971,4.31296,0,5.07479-8.30458,4.72781-14.5188l2.30735,1.04815v18.9831c0,5.72197-0.84764,7.49534-3.63446,9.34016-1.34637,0.5901,0.66722,1.77021,2.85026,1.77021,4.87984,0,3.43873-10.679,4.02655-18.9132l2.61651,1.16461s-0.065,2.54719-0.19605,4.54974c-0.13188,2.0146,0.9002,2.74515,1.48545,4.10718,0,0-0.8596,4.94167-0.8596,10.7377,0,4.54214-1.20196,5.71797-3.08401,6.59945-0.44093,0.20651-0.68143,1.37738,2.6165,1.40529,4.73158,0.04,3.86821-8.20259,3.86821-12.8728,0-7.91199,0.55044-18.7502,0.55044-18.7502l2.42046,0.8851s-0.15835,12.7032-0.15835,17.7021c0,1.15858-1.17373,2.30861-2.34505,2.25934,0.54087,0.79006,1.06742,1.43635,2.32997,1.43635,1.85522,0,2.37305-1.87169,2.36013-3.05128-0.0574-5.24808,0.19605-17.6632,0.19605-17.6632l3.08401,1.41306s0.21721,1.79095,0,3.41618c-0.22621,1.69257-1.87001,2.54661-1.87001,2.54661,1.14453,2.29366,2.83388,1.76948,3.34792,0.88511,0.78882-1.35711,0.55799-5.88516,0.55799-5.88516l1.90771,0.93169s0.1642,6.67736-0.21867,10.6911c-0.31736,3.32694,0.42807,4.94413,0.5429,5.17086-0.21662,2.00262-0.73842,3.96634-2.20932,5.80752-0.56573-1.28674-2.00973-3.92085-4.52422-3.92085-2.11679-0.00001-3.34038,2.36027-3.34038,2.36027l0.37702,0.71429s0.75602-0.3882,1.59856-0.3882c0.3372,0,0.8921,0.30527,1.19138,0.27174,0.5104,0.71183,2.99352,3.33079,2.99352,3.33079s-2.00013-0.34262-4.26785-0.34939c-2.66638-0.008-4.22294,2.72126-3.49872,5.17863,0.608-0.95432,1.16577-1.54186,2.52602-1.45964,1.51551-1.14003,3.9352-1.40614,5.40644-1.37424-0.1077,1.12031-2.30457,2.36695-2.81256,4.9457-0.34804,1.76682,0.5804,3.31195,1.6815,3.94415-1.2463,0.28446-2.05808,3.08635-4.19244,3.22208,0,0,0.49714,0.87734,2.12638,0.87734,3.07526,0,4.03521-2.8727,5.46676-2.8727,1.1667,0,2.23931,2.13511,5.11237,2.13511,2.16631,0,3.49872-1.1646,3.49872-1.1646l0.008,2.1817s-5.57028,0.0233-6.40176,0.38043c-0.83149,0.35709-3.59675,3.48608-3.59675,3.48608,3.08488,0.30776,4.04936-1.39753,5.42905-1.39753,1.26508-0.00001,3.12845-0.22514,4.49406-0.51243v1.60716c-2.15269,1.06737-3.83767,3.42465-5.39136,5.61341,1.23004-0.0573,1.89626,0.36641,4.99926-1.28883,1.25172,0.79451,2.06002,1.75018,2.34505,2.89599l0.54291,0.10094c0.39531-1.57585,1.0691-2.12329,1.74182-2.67084,0.85794,0.68672,3.21781,0.80451,5.05958,1.11803-1.82882-1.96894-2.38374-3.37334-4.53174-4.6662l-0.0829-1.39754c2.22314,0.16284,2.49598,1.72363,3.99639,1.72363,0.60716,0,0.6155-0.27951,1.22908-0.27951,1.64189,0,2.7583,1.06727,3.7174,2.10406,1.40761-2.02033-0.74077-4.11495-2.72961-4.11495-0.73004,0-1.54708,0.1941-1.90771,0.1941-1.2029,0-1.59376-1.70503-4.04917-2.39134l-0.0151-2.43791c1.10902,0.35136,2.41953,2.90375,4.99925,2.90375,2.70524,0,3.12192-2.34474,5.30842-2.34474,1.41911-0.00001,3.43086,2.073,3.43086,2.073,0.58015-1.66632,0.0356-4.00651-1.26678-5.20192,0.85175-0.48758,1.47241-1.09085,1.93033-1.64598,0.63785-2.48433-1.43545-4.86722-2.32243-6.83237,0,0,2.09659,1.32085,3.55905,1.73915,0.76779,0.2196,2.15655,0.37267,2.15654,0.37267,0.7981,0.63442,1.38577,1.53153,1.9605,2.45345,0.46062-1.04753,0.76896-2.50486,0.33931-3.71122-0.24799-0.69632-1.05457-2.40673-2.81255-2.91929-1.47862-0.43111-3.10156-0.43497-4.29047-0.45808,1.05169-0.96295,1.95681-1.88655,2.79748-3.01246,0.86727-0.11705,1.33337-0.11353,2.08868,0,0,0-0.52085-2.81059-2.90304-2.81059-0.91093,0-0.72388,0.50467-0.72388,0.50467-1.7973-0.35263-2.63394,1.23701-3.88328,3.71122l-3.02368-4.93794s0.28653-2.56947,0.28653-6.66157c0-4.04771-1.18817-8.13056-2.34505-9.57308,0.40697-0.5549,0.78614-1.35093,0.935-2.1817,0.19632-1.09565,0.0905-2.34934,0.0905-4.13825l1.56085,0.75312s-0.21113,2.75521-0.21113,5.38826c0,2.28693,0.57585,4.82924,2.20933,4.82924,1.18669,0,1.85492-1.28883,1.85492-1.28883-3.45434-0.12884-2.79683-6.96436-0.91238-6.96436,0.69064,0,1.141,0.92368,1.14614,1.70809,0.009,1.41822-0.16752,2.25434,0.0754,3.54817,0.15258,0.81267,0.76571,1.48633,1.41005,1.56058-0.35822,1.76845-0.47505,4.49998-0.47505,6.75473,0,2.4869,0.30151,5.31062,2.80502,5.31062,1.17369,0,1.62231-0.72922,1.88509-1.2966-0.7776,0.01-1.42998-0.57689-1.7192-1.44412-1.10313-3.30759-0.12735-6.76322,0.31669-10.3572-0.93401-6.22893,0.15424-8.09192,0.96517-9.2237-0.10716,3.67896,0.7811,5.52756,1.68904,7.02647,0,0-0.20076,9.20179-0.24129,15.6058-0.0427,6.82654,1.51156,10.1864,5.00679,10.1864,1.05448-0.00001,1.84739-0.55125,1.84739-0.55125-4.87429-2.82074-4.40357-10.4052-4.40357-16.1337,0-3.48835-0.60249-13.907,1.77199-17.1586l1.2517,0.46584c0.0169,4.01878,0.0153,9.81156,0.95762,14.5421,0.77681,3.89968,2.32025,7.36809,4.59208,7.36809,1.4618,0,2.66645-1.26118,2.91812-2.22828-3.82698-0.44295-4.3828-5.24891-4.34325-11.0638,0.0225-3.31201,0.18097-7.13016,0.18097-10.2097l1.82477,2.01089c-0.22659,2.08528-0.64497,10.0933,4.62224,10.0933,1.23434,0,2.05504-1.05726,2.16408-2.39133-3.24977-1.10993-3.2916-4.17587-2.51848-6.97212-1.58558-1.44544-1.97712-3.93639-1.99065-6.1569-0.0202-3.31876,0.19393-6.71929,0.5806-9.938,2.34208,0,1.95974,6.91778,5.94181,6.91778,1.89544,0,2.85025-2.77177,2.85025-2.77177-1.79026-0.25232-3.1863-0.75822-3.63445-2.05748-0.96734-2.80452-0.73896-5.8137-0.73895-9.00631,0-1.14468-0.0803-2.70552-0.7465-3.6724-0.35365-2.25435-2.08899-4.92037-3.82296-6.22677,0.37465-1.59338,0.64192-3.04211,0.30915-4.7516-0.13412-0.68901-0.3202-1.34531-0.5429-1.97207,0.48127,0.132273,1.05082,0.240685,1.63625,0.240685,4.32034,0,3.01813-2.69175,2.77486-2.63202-0.1391,0.03415-1.50289,1.44412-2.94074,1.44412-0.81532,0-1.5476-0.256195-2.0736-0.481371-0.60806-1.24167-1.38964-2.3532-2.27719-3.36184,0.54159-0.8149,1.19343-1.83015,1.7192-2.764,1.29688-2.30349,2.85211-4.02178,3.77772-4.02178,1.20518,0,1.00689,0.706529,2.17916,0.706529,2.19696,0,2.07757-2.75638,1.83231-3.20656-0.23759-0.43611-0.88513,1.22672-2.13392,1.22672-1.25786,0-1.20684-1.44412-2.8578-1.44412-1.04509,0-2.38475,0.972359-3.53642,4.65067-0.4965,1.58574-1.3532,2.9281-1.98312,3.78886-1.40708-1.3684-3.01285-2.52948-4.63732-3.55594-2.05591-1.29908-4.34459-0.735094-4.53176,2.21276-0.13102,2.06368,0.88584,3.27556,1.87755,4.50315,0.2163,1.80717,0.23885,3.4944,0.12819,5.2718-0.002,0.0077,0.002,0.01561,0,0.02329-0.00016,0.0026,0.00016,0.0052,0,0.0078-0.27403,1.25559-1.41579,2.86562-2.63913,3.69569-0.86166,0.58466-1.47745,0.48137-2.72207,0.48137-4.16808,0-4.99171,2.30379-4.99171,4.61185,0,2.87247,1.30111,6.10255,2.2244,6.10255,0.79371,0,1.91525-1.65171,1.91525-3.50935,0-1.69056-1.4025-2.35848-1.4025-3.69569-0.00001-1.39264,1.01592-1.75468,2.34505-1.75468,4.44273,0,4.56211-2.72926,5.50446-4.95347,4.49611,3.94185,1.15641,10.2645-2.98598,12.9116-2.85643,1.82535-6.68885,2.72839-10.8204,1.73138,0.3113-3.098,0.20826-6.19557,0.11311-9.29358,0.3647-0.40849,0.96583-0.66807,1.44775-0.68323,0.69749-2.70216,0.20579-5.69222-0.89731-7.40691,2.12498-1.21537,2.03135-3.62694,5.11991-3.70346-2.45838-3.06836-6.00652-2.1901-8.28686-4.98452,1.10331-0.69264,2.05009-1.46887,2.73715-2.3758-3.61247,0.03944-3.66431-2.85717-8.9504-2.85717-3.81124,0-6.97921,3.2367-8.78452,6.0482-1.28908,0.0037-3.6563,0.530966-5.37628,1.81679-1.34809,1.0078-2.53356,2.88041-2.53356,5.04664,0,1.91293,1.79284,3.3228,4.23014,3.36184,0,0,0.045-2.21853,1.52316-3.12892,1.4782-0.910387,3.72493-0.170809,3.72493-0.170809s1.40928-1.31213,2.8201-1.31213c1.31503,0,2.23948,0.77947,2.23948,1.84785,0,0.959943-1.52691,1.66151-3.09154,1.66151-1.49195-0.000001-2.73478,0.380714-3.84559,1.01709-1.83738,1.05263-1.82476,2.87269-1.82476,2.87269,0.9449-0.75401,2.10896-1.7935,5.30841-1.7935,1.93657,0,3.72494-0.570048,4.95402-1.53727,0.0473,0.261575,0.0754,0.512251,0.0754,0.729821,0,1.81928-0.59857,2.53501-3.48365,3.455,0.53484,0.60979,1.48545,0.6724,1.48545,1.65374,0,1.01424-3.47975,3.80117-5.5874,5.22522,0.91147,2.49668,1.09986,5.83857-4.60716,5.83857-3.05382,0-8.31358-1.9335-11.7856-3.92862-3.55701-2.04397-5.05958-4.07232-5.05958-7.50008,0-2.04307,0.61234-4.38836,3.363-6.15689,0.1362-0.08757,0.25789-0.20375,0.36947-0.333855,1.40467,2.56238,2.1153,5.88126,4.81075,5.89292,2.747,0.0119,4.45573,2.6397,4.13966,5.70658,1.36495-0.61488,2.3903-2.45953,2.39029-4.96123,0-1.87916-1.31172-2.76401-3.11416-2.76401-1.39846,0-1.62875,0.34939-3.15941,0.34939-1.9316,0-3.3371-2.87977-4.62979-4.95347,0.52687-1.2597,0.54878-3.20589,0.32424-4.76713-0.22157-1.54059,0.26508-2.24106,1.52315-3.05904,1.17897-0.766537,1.30258-3.09786-1.13105-3.09786-1.88568,0-4.29645,0.843007-6.21326,1.89443-0.49573,0.271923-0.97567,0.597909-1.44021,0.95498-0.65623-0.165107-1.55576-0.476453-2.23194-1.04038-1.36887-1.14163-1.06319-2.15535-1.06319-3.45501,0-1.30138-0.80641-2.65531-2.06606-2.65531zm39.8433,72.9666c0.55345,2.18403,1.99614,3.91026,3.18203,5.76869l2.78239,5.74541c-2.16771,0.26685-4.73136-0.10523-5.8664,2.04194-1.38409-0.25369-0.36708,4.15486,1.53824,4.74385-0.0462-1.14352-0.1649-2.37714,0.23375-2.53109,1.93237-2.10829,4.44187-1.09579,6.20571-1.59939,0.78519,1.4913,1.42194,3.02691,1.80969,4.63514-0.33403,0.54158-0.67918,1.09176-1.03303,1.65374-2.50754,0.14104-4.14237,2.54662-6.30374,2.54662-1.45929,0-3.20026-1.10177-3.48365-2.18171-0.35932-1.36934-0.57306-3.81731-0.57306-8.93643,0-5.08944,0.4949-10.9095,1.50807-11.8868zm-8.75436,0.52795c2.57349,2.83287,2.30555,12.5045,2.81255,18.8046,0.12928,1.60637-1.33035,2.73295-2.6919,2.73295-2.43341,0-2.95389-2.764-5.41398-2.764-2.12229,0-2.03054,1.57107-3.46103,1.94101-0.0621-0.96793-0.2163-1.86251,0.008-3.05127,1.33532-1.5671,1.87259-3.70691,3.07647-5.18639,3.47625-0.22333,5.01115,2.09957,5.8287,2.25157-0.0334,0.34244,1.72155,2.26642,2.52602,3.1988-0.17648-1.66897,0.009-3.33886-0.59569-5.00782l-0.51275-0.0932c-0.30289-1.0434-0.95475-1.88075-3.07646-3.21432-0.92358-0.261-1.70547-0.45833-2.54864-0.3882,1.57905-1.80943,1.80301-3.74736,2.46569-5.70659,0.3033-1.05386,1.06327-2.40611,1.58348-3.51712z"/>
</g>
<g fill="#000" stroke="#000">
<path stroke-width="0.245" d="m340.739,99.2266c0.31393-1.84394,2.26851-2.9814,5.42906-2.9814,2.54691,0,4.37341,0.124225,4.37341,0.124225l-3.40824,2.4845s-0.99277-1.30436-2.59389-1.30436c-2.54476,0-2.62845,1.44417-3.80034,1.67704z"/>
<path stroke-width="0.073" d="m344.992,90.9967c0.42101-0.592493,1.06899-1.26571,1.83077-1.56995,0.34473-0.137682,0.77824-0.140318,1.09736-0.131925,0.31913,0.0084,0.52273,0.148715,0.77403,0.229472,0.16187,0.05201,0.32681,0.191423,0.25381,0.370211-0.0757,0.185388-0.21805,0.362023-0.4299,0.373419-0.33052,0.01778-0.69503-0.110133-0.99468,0.08875-0.25896,0.171865-0.35684,0.708056-0.32799,1.10827-0.62893,0.45841-1.55707,0.08195-2.2034-0.468242z"/>
</g>
<g fill="#d7a235">
<path d="m340.189,156.867c-0.21662,2.00262-0.73842,3.96634-2.20932,5.80752-0.56573-1.28674-2.00973-3.92085-4.52422-3.92085-2.11679-0.00001-3.34038,2.36027-3.34038,2.36027l0.37702,0.71429s0.75602-0.3882,1.59856-0.3882c0.3372,0,0.8921,0.30527,1.19138,0.27174,0.5104,0.71183,2.99352,3.33079,2.99352,3.33079s-2.00013-0.34262-4.26785-0.34939c-2.66638-0.008-4.22294,2.72126-3.49872,5.17863,0.608-0.95432,1.16577-1.54186,2.52602-1.45964,1.51551-1.14003,3.9352-1.40614,5.40644-1.37424-0.1077,1.12031-2.30457,2.36695-2.81256,4.9457-0.34804,1.76682,0.5804,3.31195,1.6815,3.94415,0.0667-0.0152,0.13409-0.0233,0.20359-0.0233,0.12674,0,0.24447-0.0102,0.3544-0.0233,0.0968-0.0116,0.1862-0.0261,0.27145-0.0466,0.012-0.003,0.0259-0.005,0.0377-0.008-0.0621-0.96793-0.2163-1.86251,0.008-3.05127,1.33532-1.5671,1.87259-3.70691,3.07647-5.1864,3.47625-0.22332,5.01115,2.09957,5.8287,2.25158-0.0334,0.34244,1.72155,2.26642,2.52602,3.19879-0.17648-1.66896,0.009-3.33885-0.59569-5.00781l-0.51275-0.0932c-0.30289-1.0434-0.95475-1.88075-3.07646-3.21432-0.92358-0.261-1.70547-0.45834-2.54864-0.38821,1.57905-1.80942,1.80301-3.8352,2.46569-5.79442l-3.13679-1.62802s-0.0133-0.0282-0.0226-0.0466z"/>
<path d="m359.5,158.28-2.70676,1.92838,2.85757,5.89003c-2.16771,0.26685-4.73136-0.10523-5.8664,2.04194-1.38409-0.25369-0.36708,4.15486,1.53824,4.74385-0.0462-1.14352-0.1649-2.37714,0.23375-2.53109,1.93237-2.10829,4.44187-1.09579,6.20571-1.59939,0.78519,1.4913,1.42194,3.02691,1.80969,4.63514-0.33403,0.54158-0.67918,1.09176-1.03303,1.65374,0.0757-0.004,0.14889-0.008,0.22621-0.008,0.0916,0,0.18288,0.007,0.27145,0.0155,0.0883,0.009,0.17119,0.0214,0.25638,0.0388,0.0551,0.0113,0.11213,0.0242,0.16588,0.0388,0.005,0.001,0.01,0.006,0.0151,0.008,0.0527,0.0148,0.10701,0.0287,0.15835,0.0466,0.0149,0.005,0.0305,0.0101,0.0452,0.0155,0.038,0.014,0.0759,0.0309,0.11311,0.0466,0.0309,0.013,0.0601,0.0247,0.0905,0.0388,0.047,0.0219,0.09,0.0453,0.13573,0.0699,0.0756,0.0404,0.15419,0.0849,0.22621,0.13198,0.0121,0.008,0.0257,0.0152,0.0377,0.0233,0.0589,0.04,0.11693,0.08,0.17343,0.12423,0.0686,0.0536,0.13122,0.1113,0.19605,0.17081,0.85175-0.48758,1.47241-1.09086,1.93033-1.64598,0.63785-2.48434-1.43545-4.86722-2.32243-6.83237,0,0,2.09659,1.32085,3.55905,1.73915,0.76779,0.2196,2.15655,0.37267,2.15654,0.37267,0.7981,0.63442,1.38577,1.53152,1.9605,2.45344,0.46062-1.04752,0.76896-2.50486,0.33931-3.71122-0.24799-0.69631-1.05457-2.40672-2.81255-2.91928-1.47862-0.43111-3.10156-0.43497-4.29047-0.45808,1.05169-0.96295,1.95681-1.88655,2.79748-3.01246,0.86727-0.11705,1.33337-0.11353,2.08868,0,0,0-0.52085-2.81059-2.90304-2.81059-0.91093,0-0.72388,0.50467-0.72388,0.50467-1.7973-0.35263-2.63394,1.23701-3.88328,3.71122l-3.04631-4.91464z"/>
<path d="m313.149,99.2887c-1.00226,2.37568-1.8191,4.79179-2.39784,7.19728,5.89839,6.35135,14.1446,14.0057,30.2896,12.9582-14.7502-2.19193-22.4629-8.36791-27.8918-20.1555z"/>
<path d="m385.265,102.192c-5.29258,9.62018-12.4774,15.2771-25.7654,17.2517,15.0948,0.9794,23.5567-4.84942,29.4602-10.66-0.38855-2.23252-2.09214-4.83886-3.80034-6.12584,0.0369-0.15712,0.0712-0.31115,0.10556-0.46585z"/>
<path d="m342.828,88.919c-1.28587,0-3.67253,0.514647-5.39866,1.80506-1.34809,1.00781-2.53112,2.88506-2.53112,5.05129,0,1.91293,1.79007,3.31802,4.22737,3.35705,0,0,0.0414-2.21907,1.51965-3.12946,1.4782-0.910387,3.73003-0.170698,3.73003-0.170698s1.40744-1.30868,2.81825-1.30868c1.31504,0,2.23802,0.780848,2.23802,1.84922,0,0.959943-1.52809,1.65599-3.09272,1.65599-1.49195,0-2.73158,0.381899-3.84238,1.01828-1.83739,1.05263-1.82358,2.87341-1.82358,2.87341,0.94491-0.75401,2.1055-1.79233,5.30495-1.79233,3.57336,0,6.63117-1.9611,6.63117-4.72263,0-2.39281-2.39697-4.18209-5.3602-4.18209-2.21998,0-4.42078-2.30442-4.42078-2.30442z"/>
</g>
<g fill="none" stroke="#000" stroke-width="0.245">
<use xlink:href="#reshape"/>
<path d="m334.466,158.948c-0.64256,0.61735-1.12653,1.84907-1.17629,2.79506"/>
<path d="m330.515,165.035c-0.42005,0.81841-0.451,2.29467,0.42226,3.35407"/>
<path d="m345.083,169.88c0.73713-0.2395,1.25344-0.85795,1.50807-1.92548"/>
<path d="m333.561,172.209c1.09733-0.25323,1.86437,0.10569,2.56372,0.59007"/>
<path d="m353.762,168.205c0.75277,0.5379,1.29421,1.36594,1.70619,2.37169"/>
<path d="m366.473,159.465,1.49291,2.37169"/>
<path d="m372.274,168.293c-0.91999-0.23501-1.80742,0.12907-2.00477,1.27369"/>
<path d="m366.473,174.222c-0.69425-0.38139-1.16478-0.8319-2.94318-0.8784"/>
<path d="m336.156,175.836c-0.31929,0.10959-0.50913-0.0306-0.85431,0.10662"/>
<path d="m362.536,175.037c0.64639-0.0211,1.31249-0.001,2.16166,0.81301"/>
</g>
</g>
<use xlink:href="#beagle" x="96.86589" y="115.39258"/>
<use xlink:href="#reagle" x="-96.601278" y="115.92166"/>
<path d="m300,78.4661v246.575m-98.8583,-131.589h197.189" stroke="#000" stroke-width="1.83"/>
</g>
</svg>